<!DOCTYPE svg PUBLIC "-//W3C//DTD SVG 20010904//EN" "http://www.w3.org/TR/2001/REC-SVG-20010904/DTD/svg10.dtd">
<svg version="1.0" xmlns="http://www.w3.org/2000/svg" width="607px" height="705px" viewBox="0 0 6070 7050" preserveAspectRatio="xMidYMid meet">
<g id="layer1" fill="#fefefe" stroke="none">
 <path d="M1916 3928 c-61 -97 -60 -89 -20 -160 19 -35 38 -66 42 -70 4 -4 43 -8 87 -9 l80 -2 43 71 43 72 -32 58 c-51 91 -52 92 -136 92 l-73 0 -34 -52z m145 -79 c18 -34 -4 -71 -38 -67 -34 4 -54 48 -33 72 18 23 57 20 71 -5z"/>
 <path d="M3857 3948 c-37 -51 -67 -104 -67 -119 0 -8 21 -45 46 -83 l46 -69 61 7 c33 3 70 6 82 6 17 0 32 17 64 71 l41 72 -43 71 -43 71 -81 3 -81 3 -25 -33z m141 -98 c19 -31 -3 -70 -40 -70 -36 0 -56 36 -39 69 15 27 62 28 79 1z"/>
 </g>
<g id="layer2" fill="#000000" stroke="none">
 <path d="M2855 6990 c-44 -32 -107 -79 -140 -103 -86 -63 -376 -182 -475 -195 -41 -6 -85 -10 -97 -10 -51 -1 -240 -34 -269 -48 -38 -17 -44 -35 -44 -139 l0 -80 -140 -113 c-77 -63 -156 -125 -177 -139 -21 -14 -64 -48 -96 -76 l-59 -50 -229 22 c-126 13 -237 25 -248 28 -32 8 -58 -43 -197 -385 l-38 -93 -166 -100 c-91 -54 -173 -99 -183 -99 -10 0 -20 -7 -23 -15 -3 -8 4 -126 16 -262 12 -137 21 -283 21 -326 l1 -78 -69 -76 c-37 -41 -102 -114 -143 -162 -41 -47 -80 -90 -87 -94 -25 -15 -13 -53 47 -155 33 -55 60 -104 60 -107 0 -6 46 -83 206 -350 54 -90 76 -138 89 -195 10 -41 56 -208 103 -370 98 -338 94 -294 67 -705 -8 -115 -23 -353 -34 -528 -11 -175 -22 -325 -25 -335 -3 -9 -12 -152 -21 -317 -9 -165 -18 -308 -21 -318 -3 -9 -9 -68 -14 -129 -8 -109 -7 -116 32 -287 22 -97 41 -193 43 -215 3 -31 26 -146 40 -201 2 -6 61 -37 131 -69 71 -32 136 -65 144 -72 8 -7 43 -20 78 -30 l63 -18 57 55 c31 29 109 104 172 165 63 61 160 151 215 200 55 48 210 195 345 325 135 131 263 252 285 269 22 17 117 106 212 196 l171 164 129 0 c70 0 169 -5 218 -11 67 -8 167 -8 392 1 289 11 304 11 327 -7 13 -10 105 -92 204 -183 99 -91 256 -232 348 -315 92 -82 231 -208 308 -280 78 -72 166 -150 196 -175 30 -25 142 -125 249 -223 191 -176 194 -179 230 -172 20 4 50 13 66 22 17 9 95 44 175 79 80 34 148 69 152 76 3 7 35 146 71 308 64 291 65 296 56 385 -5 50 -13 153 -19 230 -5 77 -15 201 -20 275 -6 74 -17 237 -24 362 -8 124 -18 241 -21 260 -3 18 -13 139 -21 268 -8 129 -21 318 -28 420 l-13 185 88 300 c113 391 132 457 134 475 0 8 8 26 17 40 33 52 351 577 374 618 13 23 24 49 24 58 0 8 -33 49 -74 92 -40 42 -93 100 -117 127 -25 28 -66 73 -92 100 -54 58 -53 46 -32 271 8 89 17 227 20 308 5 134 4 147 -12 152 -47 17 -139 63 -249 126 l-121 69 -33 82 c-18 45 -43 100 -55 122 -12 22 -41 87 -65 145 -24 58 -48 111 -53 118 -11 14 -68 16 -112 3 -17 -4 -119 -16 -227 -26 l-197 -18 -55 47 c-30 25 -79 63 -108 82 -29 20 -115 84 -190 142 l-137 107 -1 80 c0 104 -6 122 -44 139 -35 16 -146 34 -251 41 -153 11 -226 30 -418 110 -172 71 -200 86 -315 171 -159 117 -164 118 -277 34z m-132 -262 c29 -12 59 -27 67 -33 8 -7 52 -27 98 -45 l84 -33 121 48 c67 26 141 57 163 67 l41 19 127 -51 c70 -28 137 -56 149 -64 23 -14 210 -45 311 -51 62 -4 128 -13 159 -21 13 -4 17 -17 18 -52 0 -26 6 -68 12 -94 12 -44 20 -52 192 -189 99 -78 191 -149 205 -158 14 -8 56 -40 94 -70 l68 -54 217 22 c119 12 230 24 247 27 l31 6 53 -129 c29 -70 58 -135 64 -143 16 -19 66 -137 66 -154 0 -7 84 -62 188 -121 103 -60 189 -109 190 -111 2 -1 -1 -60 -8 -131 -6 -70 -13 -173 -15 -228 -2 -55 -7 -139 -11 -188 l-7 -88 79 -82 c44 -46 118 -125 165 -178 l87 -95 -115 -185 c-64 -101 -155 -247 -202 -324 l-87 -140 -99 -335 c-54 -184 -99 -342 -100 -350 0 -9 -4 -21 -8 -27 -10 -15 -20 -77 -21 -118 0 -70 26 -474 34 -520 5 -27 12 -120 15 -205 4 -85 13 -218 20 -295 8 -77 17 -205 20 -285 3 -80 10 -179 16 -220 6 -41 17 -183 25 -315 8 -132 15 -247 16 -255 1 -8 -25 -135 -57 -282 l-60 -267 -90 -37 c-49 -20 -119 -52 -154 -70 -35 -19 -69 -34 -76 -34 -7 0 -50 35 -96 78 -124 115 -409 372 -544 492 -66 58 -191 172 -279 254 -88 82 -182 166 -208 187 -26 20 -119 103 -206 183 -201 185 -209 191 -226 177 -8 -7 -99 -13 -235 -18 -122 -3 -224 -10 -227 -15 -7 -11 -118 -10 -130 2 -5 5 -104 12 -219 16 -116 4 -216 11 -223 17 -9 7 -46 -23 -137 -109 -69 -66 -153 -144 -186 -174 -34 -30 -161 -150 -283 -265 -121 -116 -295 -280 -386 -364 -91 -85 -238 -223 -326 -307 -89 -85 -166 -154 -172 -154 -8 0 -211 97 -292 139 -16 8 -36 83 -45 161 -2 25 -22 122 -44 215 -38 167 -39 172 -31 290 4 66 11 131 14 145 3 14 10 124 16 245 6 121 17 292 25 380 8 88 19 259 25 380 6 121 15 243 20 270 10 53 35 500 33 575 -1 25 -40 178 -88 340 -47 162 -88 309 -90 327 -6 51 -37 145 -56 173 -37 55 -166 274 -250 423 -49 87 -96 168 -104 180 -15 24 -33 1 218 282 l77 87 0 84 c0 46 -9 187 -20 314 -12 127 -19 234 -16 239 3 4 87 57 186 117 99 59 180 113 180 119 0 15 159 397 170 409 5 5 109 -1 244 -14 l235 -22 58 49 c32 26 74 59 93 73 19 13 112 87 205 164 187 153 183 148 184 268 1 45 5 58 19 62 25 7 159 26 217 30 93 7 220 28 234 40 19 15 252 115 269 116 7 0 37 -10 65 -22z"/>
 <path d="M2711 6530 c-32 -26 -279 -413 -286 -450 -4 -19 -11 -39 -15 -45 -5 -5 -29 -100 -55 -210 -26 -110 -54 -219 -62 -243 l-14 -42 78 -111 c43 -62 146 -204 229 -318 83 -114 167 -231 186 -261 20 -30 61 -91 91 -134 31 -44 54 -83 51 -87 -2 -4 -39 -15 -82 -24 -42 -9 -167 -40 -277 -68 l-200 -51 -80 -75 c-44 -42 -96 -90 -115 -108 l-36 -33 -259 -29 c-301 -33 -282 -23 -331 -167 -16 -45 -31 -81 -34 -79 -12 8 -210 -33 -231 -47 -17 -11 -34 -57 -75 -208 -30 -107 -58 -202 -63 -211 -5 -9 -33 -101 -61 -204 -43 -153 -50 -192 -41 -211 6 -13 15 -24 20 -24 5 0 106 27 224 60 119 33 223 60 233 60 9 0 139 34 288 76 249 70 273 78 296 107 14 17 54 65 90 106 36 42 168 207 293 366 125 160 252 319 283 355 30 36 89 109 131 163 42 53 80 97 84 97 5 0 37 -35 71 -77 35 -42 119 -144 188 -225 263 -313 335 -400 531 -642 36 -44 86 -102 110 -128 l44 -47 285 -75 c157 -42 292 -76 300 -76 8 0 120 -28 249 -62 228 -60 234 -61 248 -42 14 19 10 78 -7 99 -5 6 -28 78 -50 160 -23 83 -47 164 -55 180 -7 17 -32 98 -55 180 -47 174 -63 210 -93 227 -24 13 -226 50 -237 43 -3 -2 -21 40 -39 93 -19 53 -39 103 -46 110 -13 14 -396 61 -502 62 l-51 0 -124 113 -123 112 -155 37 c-85 21 -216 52 -290 69 -74 18 -138 35 -143 38 -4 4 71 110 165 237 322 428 493 666 491 682 -3 27 -69 274 -80 302 -6 14 -23 79 -38 145 -20 87 -35 130 -54 155 -15 19 -60 82 -99 140 -85 125 -158 220 -181 236 -11 8 -95 13 -259 16 -204 2 -245 1 -261 -12z m-92 -765 c111 -167 76 -153 398 -154 l222 -1 37 63 c21 34 41 65 46 68 5 3 41 56 82 119 l74 114 11 -39 c6 -22 18 -73 27 -115 9 -41 20 -80 25 -86 7 -9 49 -167 49 -186 0 -4 -80 -114 -178 -245 -99 -131 -238 -318 -309 -415 -119 -161 -132 -175 -145 -160 -9 9 -41 55 -72 102 -63 95 -64 97 -267 375 -235 324 -242 333 -236 358 3 12 26 111 52 220 l47 199 22 -39 c13 -21 64 -101 115 -178z m264 -1249 c-4 -8 -38 -52 -75 -97 -142 -178 -301 -376 -491 -615 -108 -137 -218 -275 -245 -306 l-47 -58 -126 0 -126 0 -31 58 c-17 31 -30 59 -30 62 0 3 -14 29 -31 58 -17 29 -31 56 -31 60 0 4 19 15 41 24 38 16 41 20 34 45 -4 16 -7 38 -7 50 1 17 -14 30 -73 63 -41 23 -75 43 -75 45 0 10 74 211 80 218 7 8 413 56 476 57 27 0 49 18 145 113 l114 113 185 47 c102 25 214 52 250 60 36 8 66 15 68 16 2 0 -1 -5 -5 -13z m302 -19 c61 -14 175 -40 255 -59 l145 -33 75 -69 c41 -38 96 -90 122 -117 l47 -48 78 0 c124 -1 423 -37 439 -52 10 -11 84 -198 84 -214 0 -2 -34 -22 -76 -45 -53 -29 -74 -46 -73 -58 2 -9 0 -30 -4 -45 -9 -35 4 -53 44 -62 16 -4 29 -11 29 -16 0 -6 -30 -61 -67 -124 l-67 -115 -126 0 -126 0 -55 58 c-30 31 -73 80 -94 107 -21 28 -55 68 -74 90 -20 23 -83 99 -141 170 -195 239 -254 310 -325 390 -78 90 -192 227 -215 258 -13 19 -13 20 0 16 8 -3 65 -17 125 -32z"/>
 <path d="M2165 4115 c-115 -41 -222 -74 -236 -74 -23 -1 -34 -14 -83 -100 -31 -54 -56 -102 -56 -106 0 -4 25 -51 56 -105 l55 -99 121 -3 121 -3 27 40 c28 41 117 204 211 384 l53 103 -23 19 c-13 10 -26 19 -30 18 -3 0 -100 -34 -216 -74z m-30 -220 l36 -65 -38 -63 -38 -62 -75 5 -74 5 -33 59 -33 59 37 63 37 64 72 0 72 0 37 -65z"/>
 <path d="M1976 3865 c-20 -30 -20 -38 0 -76 13 -25 20 -30 46 -27 20 2 38 13 51 30 20 27 20 29 4 63 -14 30 -22 35 -51 35 -25 0 -38 -6 -50 -25z"/>
 <path d="M3529 4172 l-22 -19 114 -186 c63 -102 136 -223 164 -268 l50 -81 50 6 c27 3 84 6 126 6 l77 0 58 102 57 101 -24 46 c-13 25 -41 71 -61 102 l-38 57 -242 67 c-134 37 -247 72 -252 76 -15 14 -32 11 -57 -9z m543 -276 l38 -65 -36 -59 -35 -60 -75 -7 c-42 -4 -77 -5 -78 -3 -24 28 -76 116 -76 127 0 7 16 40 36 72 l35 59 77 0 77 0 37 -64z"/>
 <path d="M3903 3855 c-16 -34 -16 -36 4 -63 30 -40 80 -38 106 5 18 32 18 33 -3 63 -17 23 -29 30 -56 30 -29 0 -37 -5 -51 -35z"/>
 <path d="M1200 2200 c-86 -43 -161 -84 -166 -92 -6 -7 -28 -110 -49 -228 -21 -118 -41 -219 -45 -225 -5 -5 -14 -46 -21 -89 l-13 -79 57 -226 c32 -124 60 -240 62 -257 6 -47 77 -317 88 -332 26 -34 55 -12 210 156 85 92 185 196 222 230 l68 64 -52 246 c-28 136 -53 265 -55 287 -2 22 -28 153 -56 290 -29 138 -53 258 -52 268 1 29 -16 67 -30 66 -7 0 -83 -35 -168 -79z"/>
 <path d="M4626 2257 c-8 -12 -15 -31 -14 -42 1 -19 -51 -272 -174 -851 l-51 -240 94 -90 c51 -49 156 -153 232 -232 139 -141 169 -162 194 -130 5 7 56 191 112 408 92 351 102 401 97 452 -3 32 -10 66 -16 75 -5 10 -26 101 -45 203 -45 241 -56 286 -80 308 -17 16 -315 162 -330 162 -2 0 -11 -10 -19 -23z"/>
 </g>

</svg>