<?xml version="1.0" standalone="no"?>
<!DOCTYPE svg PUBLIC "-//W3C//DTD SVG 20010904//EN"
 "http://www.w3.org/TR/2001/REC-SVG-20010904/DTD/svg10.dtd">
<svg version="1.0" xmlns="http://www.w3.org/2000/svg"
 width="1114.000000pt" height="1294.000000pt" viewBox="0 0 1114.000000 1294.000000"
 preserveAspectRatio="xMidYMid meet">
<metadata>
Created by potrace 1.14, written by Peter Selinger 2001-2017
</metadata>
<g transform="translate(0.000000,1294.000000) scale(0.100000,-0.100000)"
fill="#000000" stroke="none">
<path d="M2572 9350 c-2 -42 -8 -50 -89 -134 -49 -49 -79 -83 -68 -75 11 8 41
36 67 62 40 40 48 45 48 27 0 -22 -61 -90 -81 -90 -6 0 -24 -13 -39 -30 -15
-16 -35 -30 -44 -30 -9 0 -16 -4 -16 -10 0 -5 -13 -10 -30 -10 -16 0 -30 -4
-30 -10 0 -5 -18 -10 -40 -10 -22 0 -40 -4 -40 -10 0 -5 -21 -10 -47 -10 -29
0 -43 -4 -37 -9 5 -5 64 -38 132 -73 67 -35 141 -73 165 -85 77 -41 87 -32 87
77 0 38 5 72 10 75 6 3 10 30 10 59 0 28 5 57 11 63 5 5 12 43 14 83 3 41 10
77 15 80 7 4 10 28 7 56 l-3 49 -2 -45z m-25 -117 c-3 -10 -5 -4 -5 12 0 17 2
24 5 18 2 -7 2 -21 0 -30z"/>
<path d="M8465 9231 c0 -16 3 -33 8 -37 4 -4 7 3 7 16 0 23 0 23 18 4 10 -10
40 -39 67 -64 39 -35 35 -28 -20 31 -39 42 -72 77 -75 78 -3 0 -5 -12 -5 -28z"/>
<path d="M8487 9183 c-11 -11 -8 -138 4 -150 6 -6 14 -53 17 -104 l7 -94 33 2
c18 0 41 8 51 17 10 9 25 16 33 16 9 0 21 7 28 15 7 8 20 15 30 15 22 0 74 26
90 45 7 8 22 15 35 15 12 0 34 11 48 24 14 13 32 26 39 29 7 3 3 6 -9 6 -13 1
-23 -3 -23 -9 0 -5 -11 -10 -25 -10 -14 0 -25 5 -25 10 0 6 -18 10 -40 10 -22
0 -40 5 -40 10 0 6 -18 10 -40 10 -22 0 -40 5 -40 10 0 6 -7 10 -15 10 -9 0
-45 29 -80 65 -70 70 -68 68 -78 58z"/>
<path d="M9091 9134 c0 -11 3 -14 6 -6 3 7 2 16 -1 19 -3 4 -6 -2 -5 -13z"/>
<path d="M2365 9120 c-3 -5 1 -10 10 -10 9 0 13 5 10 10 -3 6 -8 10 -10 10 -2
0 -7 -4 -10 -10z"/>
<path d="M2304 9099 c-3 -5 6 -9 20 -9 31 0 34 6 6 13 -11 3 -23 1 -26 -4z"/>
<path d="M8635 9100 c-18 -8 -17 -9 8 -9 16 -1 26 3 22 9 -3 6 -7 10 -8 9 -1
0 -11 -4 -22 -9z"/>
<path d="M1965 9090 c3 -5 8 -10 11 -10 2 0 4 5 4 10 0 6 -5 10 -11 10 -5 0
-7 -4 -4 -10z"/>
<path d="M2224 9078 c-3 -4 11 -8 30 -8 20 0 36 2 36 4 0 8 -61 12 -66 4z"/>
<path d="M8690 9080 c-24 -8 -23 -8 8 -9 20 -1 31 3 27 9 -3 6 -7 10 -8 9 -1
-1 -13 -5 -27 -9z"/>
<path d="M2005 9070 c3 -5 8 -10 11 -10 2 0 4 5 4 10 0 6 -5 10 -11 10 -5 0
-7 -4 -4 -10z"/>
<path d="M8765 9060 c-30 -8 -30 -8 8 -9 23 -1 36 3 32 9 -3 6 -7 9 -8 9 -1
-1 -15 -5 -32 -9z"/>
<path d="M8945 9060 c-3 -5 3 -11 12 -13 10 -3 -18 -6 -62 -8 l-80 -2 60 -6
c73 -7 105 -3 105 14 0 16 -27 28 -35 15z"/>
<path d="M2069 9041 c14 -12 29 -17 39 -13 14 5 12 8 -8 12 -14 2 5 7 45 11
l70 5 -84 2 -84 2 22 -19z"/>
<path d="M1916 7195 c-18 -14 -16 -45 3 -45 6 0 13 -17 17 -37 10 -54 32 -103
46 -103 9 0 9 -3 0 -12 -16 -16 -15 -45 0 -50 22 -8 58 4 58 19 0 19 25 43 44
43 9 0 16 5 16 10 0 6 8 10 18 10 10 0 24 9 32 20 8 12 26 20 42 20 15 0 28 5
28 10 0 6 17 10 38 11 20 0 30 3 22 6 -8 3 -17 9 -20 13 -12 17 -76 40 -110
40 -20 0 -45 7 -56 15 -10 8 -32 15 -49 15 -16 0 -41 7 -55 15 -32 18 -50 18
-74 0z"/>
<path d="M9050 7195 c-14 -8 -40 -14 -58 -15 -18 0 -40 -7 -48 -15 -9 -9 -34
-15 -59 -15 -24 0 -47 -4 -50 -10 -3 -5 -19 -10 -35 -10 -29 0 -67 -27 -54
-39 4 -3 9 0 11 7 5 14 33 16 33 2 0 -5 16 -10 36 -10 28 0 43 -8 74 -40 21
-22 43 -40 50 -40 19 0 80 -68 80 -90 0 -11 -4 -20 -10 -20 -5 0 -10 -7 -10
-16 0 -13 2 -13 13 -2 21 20 49 84 46 105 -4 36 14 85 36 99 19 12 24 26 27
70 l3 54 -30 0 c-16 -1 -41 -7 -55 -15z"/>
<path d="M2285 7080 c-27 -5 -28 -6 -9 -12 12 -3 28 -2 35 3 20 12 8 16 -26 9z"/>
<path d="M2380 7080 c-12 -8 -10 -10 8 -10 13 0 20 4 17 10 -7 12 -6 12 -25 0z"/>
<path d="M8744 7071 c3 -5 15 -7 26 -4 28 7 25 13 -6 13 -14 0 -23 -4 -20 -9z"/>
<path d="M2225 7050 c4 -6 11 -8 16 -5 14 9 11 15 -7 15 -8 0 -12 -5 -9 -10z"/>
<path d="M8805 7050 c3 -5 12 -7 20 -3 21 7 19 13 -6 13 -11 0 -18 -4 -14 -10z"/>
<path d="M2170 7036 c0 -9 30 -14 35 -6 4 6 -3 10 -14 10 -12 0 -21 -2 -21 -4z"/>
<path d="M8845 7030 c3 -5 12 -7 20 -3 21 7 19 13 -6 13 -11 0 -18 -4 -14 -10z"/>
<path d="M2140 7000 c-7 -10 -23 -20 -34 -22 -18 -3 -18 -4 -5 -10 11 -4 26 3
45 23 15 16 23 29 18 29 -5 0 -16 -9 -24 -20z"/>
<path d="M8885 7010 c4 -6 11 -8 16 -5 14 9 11 15 -7 15 -8 0 -12 -5 -9 -10z"/>
<path d="M8927 6984 c-3 -6 12 -28 33 -49 22 -22 40 -35 40 -31 0 4 -13 20
-28 34 -16 15 -31 34 -34 42 -2 8 -7 10 -11 4z"/>
<path d="M2063 6945 c-10 -10 -9 -14 2 -19 17 -6 26 5 17 21 -5 8 -11 7 -19
-2z"/>
<path d="M2010 6887 c-3 -33 -2 -61 1 -63 11 -6 15 28 9 76 l-6 45 -4 -58z"/>
<path d="M2030 6899 c0 -11 4 -18 10 -14 5 3 7 12 3 20 -7 21 -13 19 -13 -6z"/>
<path d="M7668 6833 c7 -3 16 -2 19 1 4 3 -2 6 -13 5 -11 0 -14 -3 -6 -6z"/>
<path d="M3339 6819 c-10 -6 -9 -9 7 -9 12 0 27 -6 34 -14 6 -8 18 -12 25 -9
17 6 45 -19 45 -39 0 -8 9 -20 20 -28 12 -8 20 -26 20 -42 0 -15 5 -28 10 -28
6 0 10 -18 10 -40 0 -22 5 -40 10 -40 6 0 10 -11 10 -25 0 -14 -4 -25 -10 -25
-5 0 -10 -22 -10 -50 0 -27 -4 -50 -10 -50 -5 0 -10 -13 -10 -30 0 -16 -4 -30
-10 -30 -5 0 -10 -9 -10 -20 0 -11 -4 -20 -10 -20 -5 0 -10 -9 -10 -20 0 -11
-4 -20 -10 -20 -5 0 -10 -9 -10 -20 0 -11 -4 -20 -10 -20 -5 0 -10 -9 -10 -20
0 -11 -4 -20 -10 -20 -5 0 -10 -9 -10 -20 0 -11 -4 -20 -10 -20 -5 0 -10 -9
-10 -20 0 -11 -4 -20 -10 -20 -5 0 -10 -9 -10 -20 0 -11 -6 -20 -13 -20 -9 0
-12 -10 -9 -30 3 -18 0 -30 -7 -30 -6 0 -11 -9 -11 -20 0 -11 -4 -20 -10 -20
-5 0 -10 -22 -10 -50 0 -27 -4 -50 -10 -50 -6 0 -10 -52 -10 -135 0 -83 4
-135 10 -135 6 0 10 -32 10 -75 0 -43 -4 -75 -10 -75 -5 0 -10 -7 -10 -15 0
-9 -16 -31 -35 -50 -29 -30 -41 -35 -80 -35 -25 0 -45 -4 -45 -10 0 -5 -11
-10 -25 -10 -14 0 -25 5 -25 10 0 6 -22 10 -50 10 -27 0 -50 5 -50 10 0 6 -9
10 -19 10 -13 0 -21 8 -23 23 -3 14 -7 6 -12 -25 -8 -46 -7 -48 35 -92 l42
-46 86 0 c57 0 93 -5 106 -14 13 -8 69 -16 160 -20 77 -4 144 -11 150 -16 5
-4 81 -11 167 -15 115 -5 160 -11 169 -21 12 -15 56 -18 108 -8 l31 7 -2 76
-2 76 -3 -72 c-3 -56 -7 -73 -18 -73 -12 0 -15 17 -15 83 0 71 3 85 20 97 11
8 20 20 20 27 0 17 166 183 183 183 7 0 19 9 27 20 8 11 22 20 32 20 10 0 18
5 18 10 0 6 9 10 20 10 11 0 20 5 20 10 0 6 14 10 30 10 17 0 30 5 30 10 0 6
50 10 131 10 105 0 133 -3 146 -16 11 -11 19 -12 26 -5 8 8 5 16 -11 27 -12 8
-22 21 -22 28 0 8 -11 21 -25 30 -14 9 -33 33 -43 53 -9 20 -28 48 -41 62 -13
15 -27 36 -32 49 -5 13 -13 20 -19 17 -5 -3 -10 -1 -10 6 0 7 -20 37 -45 67
-25 30 -45 59 -45 64 0 6 -25 38 -55 73 -30 34 -55 66 -55 71 0 5 -22 32 -49
61 -27 28 -47 54 -44 57 6 5 -55 75 -119 136 -21 19 -38 42 -38 50 -1 8 -41
57 -90 109 -50 52 -90 100 -90 107 0 18 -32 34 -67 34 -15 0 -41 7 -56 15 -16
8 -51 17 -78 21 -27 4 -52 11 -55 15 -3 5 -23 9 -44 9 -23 0 -45 7 -56 17 -13
13 -19 14 -22 5 -2 -6 -10 -12 -18 -12 -9 0 -13 4 -10 9 8 12 -29 20 -45 10z
m516 -651 c14 -6 25 -15 25 -19 0 -4 14 -28 30 -52 17 -25 30 -47 30 -50 0 -4
13 -26 30 -50 51 -76 53 -91 23 -150 -15 -29 -30 -54 -34 -57 -4 -3 -17 -29
-30 -57 -12 -29 -27 -53 -31 -53 -5 0 -13 -11 -18 -25 l-10 -25 -152 0 c-142
0 -153 1 -175 22 -13 12 -23 27 -23 34 0 6 -7 17 -15 24 -8 7 -15 19 -15 27 0
8 -13 32 -30 53 -16 21 -30 42 -30 48 0 5 -7 15 -15 22 -8 7 -15 26 -15 42 0
16 6 31 15 34 8 4 15 14 15 24 0 10 7 23 15 30 8 7 15 18 15 25 0 7 7 18 15
25 8 7 15 18 15 26 0 11 39 77 56 94 18 17 274 24 309 8z"/>
<path d="M3654 5963 c-40 -63 -10 -123 62 -123 38 0 44 4 58 32 21 41 20 54
-5 89 -16 23 -28 29 -59 29 -30 0 -41 -5 -56 -27z"/>
<path d="M7595 6813 c-13 -13 -21 -14 -42 -4 -22 10 -28 10 -35 -3 -5 -9 -22
-16 -38 -16 -16 0 -31 -4 -34 -9 -3 -5 -34 -12 -68 -16 -35 -4 -72 -14 -83
-21 -11 -8 -39 -14 -62 -14 -31 0 -43 -4 -43 -15 0 -8 -6 -12 -14 -9 -8 3 -16
-3 -19 -15 -3 -12 -13 -21 -22 -21 -11 0 -15 -5 -12 -14 4 -10 1 -13 -9 -9 -9
3 -14 -1 -14 -14 0 -10 -16 -35 -36 -54 -20 -18 -60 -65 -89 -104 -29 -38 -70
-86 -89 -104 -20 -19 -36 -42 -36 -50 0 -9 -30 -45 -65 -80 -36 -36 -67 -72
-70 -82 -3 -9 -15 -19 -25 -22 -11 -3 -20 -14 -20 -24 0 -11 -12 -30 -26 -44
-14 -13 -33 -37 -41 -54 -8 -16 -28 -43 -44 -60 -98 -99 -149 -159 -149 -174
0 -9 -16 -32 -36 -51 -27 -27 -34 -40 -29 -58 3 -13 2 -29 -4 -35 -7 -9 0 -12
25 -11 41 1 59 14 21 14 -17 0 -27 5 -27 15 0 13 21 15 125 15 77 0 125 -4
125 -10 0 -5 14 -10 30 -10 17 0 30 -4 30 -10 0 -5 9 -10 20 -10 11 0 20 -4
20 -10 0 -5 9 -10 20 -10 11 0 20 -4 20 -10 0 -5 7 -10 16 -10 8 0 37 -22 64
-50 27 -27 54 -50 60 -50 15 0 40 -25 40 -40 0 -7 14 -25 30 -40 17 -15 30
-35 30 -44 0 -9 5 -16 10 -16 6 0 10 -9 10 -20 0 -11 5 -20 10 -20 6 0 10 -35
10 -85 0 -58 -4 -85 -12 -85 -6 0 -9 -3 -5 -6 3 -3 20 4 36 15 29 21 45 22
232 26 111 3 207 9 213 14 6 5 79 12 161 16 100 5 157 12 170 21 13 9 50 14
110 14 50 0 95 4 101 9 5 5 17 11 27 13 15 2 20 14 22 48 2 25 0 52 -5 60 -7
10 -10 11 -10 3 0 -7 -9 -13 -19 -13 -11 0 -22 -6 -24 -12 -4 -10 -6 -10 -6 0
-1 14 -51 17 -51 2 0 -6 -34 -10 -83 -10 -71 0 -85 3 -97 20 -8 11 -20 20 -28
20 -7 0 -24 11 -37 25 l-25 24 0 256 c0 163 -4 255 -10 255 -5 0 -10 14 -10
30 0 17 -4 30 -10 30 -5 0 -10 14 -10 30 0 17 -5 30 -11 30 -7 0 -10 12 -7 30
3 17 0 30 -4 30 -20 0 -40 32 -35 55 2 14 0 25 -5 25 -15 0 -38 27 -38 44 0 9
-4 16 -10 16 -5 0 -10 9 -10 20 0 11 -4 20 -10 20 -5 0 -10 9 -10 20 0 11 -4
20 -10 20 -5 0 -10 14 -10 30 0 17 -4 30 -10 30 -5 0 -10 14 -10 30 0 17 -4
30 -10 30 -6 0 -10 35 -10 85 0 50 4 85 10 85 6 0 10 14 10 30 0 17 5 30 10
30 6 0 10 9 10 20 0 11 5 20 10 20 6 0 10 7 10 16 0 18 23 44 39 44 6 0 11 -7
11 -15 0 -8 -4 -15 -10 -15 -5 0 -10 -5 -10 -12 0 -6 8 -3 20 7 11 10 17 21
15 25 -6 10 15 27 40 32 18 3 18 4 3 10 -10 4 -24 1 -33 -9z m-166 -659 c17
-14 31 -30 31 -36 0 -6 14 -30 30 -55 17 -24 30 -50 30 -56 0 -7 13 -28 30
-47 37 -45 37 -73 0 -120 -16 -21 -30 -42 -30 -48 0 -5 -7 -15 -15 -22 -9 -7
-25 -32 -35 -54 -42 -87 -39 -86 -212 -86 -158 1 -188 7 -188 43 0 9 -6 20
-14 24 -7 4 -23 29 -35 55 -11 26 -25 49 -30 52 -16 10 -51 86 -51 110 0 13 7
29 15 36 8 7 15 17 15 22 0 6 10 23 23 38 12 15 31 42 42 61 70 117 55 109
221 109 139 0 143 -1 173 -26z"/>
<path d="M7200 5966 c-27 -29 -29 -66 -6 -101 14 -21 24 -25 65 -25 39 0 50 4
59 23 18 35 18 51 3 90 -14 34 -18 37 -56 37 -31 0 -47 -6 -65 -24z"/>
<path d="M2031 6784 c0 -11 3 -14 6 -6 3 7 2 16 -1 19 -3 4 -6 -2 -5 -13z"/>
<path d="M8991 6774 c0 -11 3 -14 6 -6 3 7 2 16 -1 19 -3 4 -6 -2 -5 -13z"/>
<path d="M3408 6764 c-4 -6 1 -19 12 -29 12 -10 20 -13 20 -7 0 7 -4 12 -9 12
-5 0 -11 8 -13 18 -2 11 -6 13 -10 6z"/>
<path d="M7530 6716 c0 -8 -6 -16 -12 -19 -7 -2 -10 -7 -7 -11 3 -3 14 2 23
13 11 12 14 21 7 26 -6 3 -11 0 -11 -9z"/>
<path d="M3445 6701 c-3 -5 -1 -12 5 -16 5 -3 10 1 10 9 0 18 -6 21 -15 7z"/>
<path d="M3467 6645 c-4 -8 -2 -17 3 -20 6 -4 10 3 10 14 0 25 -6 27 -13 6z"/>
<path d="M7490 6619 c0 -11 4 -18 10 -14 5 3 7 12 3 20 -7 21 -13 19 -13 -6z"/>
<path d="M3493 6545 c0 -22 2 -30 4 -17 2 12 2 30 0 40 -3 9 -5 -1 -4 -23z"/>
<path d="M7490 6471 c0 -25 6 -27 13 -6 4 8 2 17 -3 20 -6 4 -10 -3 -10 -14z"/>
<path d="M3465 6420 c-3 -5 -1 -10 4 -10 6 0 11 5 11 10 0 6 -2 10 -4 10 -3 0
-8 -4 -11 -10z"/>
<path d="M3445 6360 c-3 -5 -1 -10 4 -10 6 0 11 5 11 10 0 6 -2 10 -4 10 -3 0
-8 -4 -11 -10z"/>
<path d="M7530 6340 c0 -5 5 -10 11 -10 5 0 7 5 4 10 -3 6 -8 10 -11 10 -2 0
-4 -4 -4 -10z"/>
<path d="M3245 5880 c-3 -5 -1 -10 4 -10 6 0 11 5 11 10 0 6 -2 10 -4 10 -3 0
-8 -4 -11 -10z"/>
<path d="M2308 5848 c-4 -10 -1 -23 6 -31 8 -7 14 -25 14 -40 0 -37 18 -56 48
-51 21 4 57 -16 51 -27 -1 -3 2 -1 6 2 5 3 -19 32 -52 64 -33 31 -61 67 -63
78 -3 19 -4 20 -10 5z m71 -106 c-11 -4 -39 23 -39 38 0 6 11 0 23 -12 13 -13
20 -24 16 -26z"/>
<path d="M7730 5710 c0 -79 2 -141 4 -139 7 7 9 269 2 276 -3 4 -6 -58 -6
-137z"/>
<path d="M8648 5746 c-37 -33 -55 -64 -20 -34 16 14 49 30 65 32 4 1 7 4 7 9
0 4 0 12 0 17 0 17 -14 11 -52 -24z"/>
<path d="M3228 5763 c-2 -5 -1 -55 3 -113 l5 -105 2 113 c2 101 -1 127 -10
105z"/>
<path d="M6585 5630 c3 -5 12 -7 20 -3 21 7 19 13 -6 13 -11 0 -18 -4 -14 -10z"/>
<path d="M4310 5616 c0 -8 51 -13 56 -5 3 5 -9 9 -25 9 -17 0 -31 -2 -31 -4z"/>
<path d="M4524 5612 c5 -8 66 -4 66 4 0 2 -16 4 -36 4 -19 0 -33 -4 -30 -8z"/>
<path d="M4631 5613 c-1 -7 -8 -13 -17 -13 -8 0 -13 -4 -10 -9 7 -10 42 -8 39
3 -1 3 -4 12 -6 19 -4 9 -6 9 -6 0z"/>
<path d="M6665 5610 c3 -5 8 -10 11 -10 2 0 4 5 4 10 0 6 -5 10 -11 10 -5 0
-7 -4 -4 -10z"/>
<path d="M4250 5596 c0 -9 30 -14 35 -6 4 6 -3 10 -14 10 -12 0 -21 -2 -21 -4z"/>
<path d="M6705 5590 c3 -5 8 -10 11 -10 2 0 4 5 4 10 0 6 -5 10 -11 10 -5 0
-7 -4 -4 -10z"/>
<path d="M4210 5571 c0 -5 -8 -11 -17 -13 -12 -2 -14 -6 -7 -10 6 -4 19 1 29
12 10 12 13 20 7 20 -7 0 -12 -4 -12 -9z"/>
<path d="M6755 5560 c10 -11 23 -16 29 -12 7 4 5 8 -6 10 -10 2 -18 8 -18 13
0 5 -5 9 -12 9 -6 0 -3 -8 7 -20z"/>
<path d="M7750 5541 c0 -17 2 -31 4 -31 8 0 13 51 5 56 -5 3 -9 -9 -9 -25z"/>
<path d="M3207 5543 c-2 -5 -1 -19 4 -33 7 -23 7 -23 8 8 1 31 -3 40 -12 25z"/>
<path d="M4150 5531 c0 -5 -8 -11 -17 -13 -12 -2 -14 -6 -7 -10 6 -4 19 1 29
12 10 12 13 20 7 20 -7 0 -12 -4 -12 -9z"/>
<path d="M6865 5472 c66 -69 93 -92 64 -55 -17 22 -43 47 -95 93 -21 19 -8 2
31 -38z"/>
<path d="M7770 5481 c0 -17 2 -31 4 -31 8 0 13 51 5 56 -5 3 -9 -9 -9 -25z"/>
<path d="M4084 5478 l-19 -23 23 19 c21 18 27 26 19 26 -2 0 -12 -10 -23 -22z"/>
<path d="M3175 5470 c-10 -11 -15 -20 -11 -20 11 0 39 30 34 36 -3 2 -13 -5
-23 -16z"/>
<path d="M2883 5443 c-7 -3 -13 -9 -13 -14 0 -6 4 -8 9 -5 5 4 12 0 14 -6 4
-10 6 -10 6 0 1 6 9 12 18 12 9 0 13 3 9 7 -9 9 -27 11 -43 6z"/>
<path d="M3125 5440 c-4 -6 3 -10 14 -10 25 0 27 6 6 13 -8 4 -17 2 -20 -3z"/>
<path d="M4050 5439 c0 -6 -10 -20 -22 -30 -11 -11 -19 -21 -16 -24 2 -3 17 8
32 24 17 18 24 31 17 35 -6 4 -11 2 -11 -5z"/>
<path d="M7790 5440 c0 -5 5 -10 11 -10 5 0 7 5 4 10 -3 6 -8 10 -11 10 -2 0
-4 -4 -4 -10z"/>
<path d="M7820 5420 c-12 -8 -10 -10 8 -10 13 0 20 4 17 10 -7 12 -6 12 -25 0z"/>
<path d="M2978 5413 c29 -2 74 -2 100 0 26 2 2 3 -53 3 -55 0 -76 -1 -47 -3z"/>
<path d="M8084 5407 c-8 -9 -7 -16 3 -25 7 -7 13 -9 14 -5 0 4 2 16 4 26 4 20
-5 22 -21 4z"/>
<path d="M7877 5393 c18 -2 50 -2 70 0 21 2 7 4 -32 4 -38 0 -55 -2 -38 -4z"/>
<path d="M8008 5393 c12 -2 30 -2 40 0 9 3 -1 5 -23 4 -22 0 -30 -2 -17 -4z"/>
<path d="M6947 5370 c-3 -11 -1 -23 4 -26 5 -3 9 6 9 20 0 31 -6 34 -13 6z"/>
<path d="M3990 5359 c0 -11 4 -18 10 -14 5 3 7 12 3 20 -7 21 -13 19 -13 -6z"/>
<path d="M3970 5319 c0 -11 4 -18 10 -14 5 3 7 12 3 20 -7 21 -13 19 -13 -6z"/>
<path d="M6967 5325 c-4 -8 -2 -17 3 -20 6 -4 10 3 10 14 0 25 -6 27 -13 6z"/>
<path d="M6990 5227 c-3 -44 -3 -80 0 -82 3 -2 12 0 20 6 10 5 11 9 3 9 -8 0
-13 24 -15 73 l-3 72 -5 -78z"/>
<path d="M3967 5144 c-7 -8 3 -34 13 -34 9 0 8 26 -1 35 -3 3 -8 2 -12 -1z"/>
<path d="M6770 4909 c0 -5 5 -7 10 -4 6 3 10 8 10 11 0 2 -4 4 -10 4 -5 0 -10
-5 -10 -11z"/>
<path d="M6710 4849 c0 -5 5 -7 10 -4 6 3 10 8 10 11 0 2 -4 4 -10 4 -5 0 -10
-5 -10 -11z"/>
</g>
</svg>
