<!DOCTYPE svg PUBLIC "-//W3C//DTD SVG 20010904//EN" "http://www.w3.org/TR/2001/REC-SVG-20010904/DTD/svg10.dtd">
<svg version="1.0" xmlns="http://www.w3.org/2000/svg" width="557px" height="647px" viewBox="0 0 5570 6470" preserveAspectRatio="xMidYMid meet">
<g id="layer1" fill="#cfcfcf" stroke="none">
 <path d="M1774 3626 c-16 -19 -38 -51 -48 -71 -19 -34 -19 -37 -2 -72 13 -27 20 -33 29 -24 9 9 9 16 -1 31 -17 27 -16 33 15 85 l28 45 62 0 c62 0 63 0 88 -40 32 -51 52 -43 26 9 -27 51 -37 57 -107 65 -62 7 -62 7 -90 -28z"/>
 <path d="M3543 3627 c-11 -12 -32 -43 -46 -69 l-27 -47 32 -48 c42 -65 59 -83 69 -77 5 2 -8 30 -28 61 -20 32 -36 62 -36 68 0 6 16 36 36 68 37 57 37 85 0 44z"/>
 <path d="M3605 3640 c-7 -12 11 -22 38 -20 46 4 55 -1 85 -50 35 -56 34 -62 -14 -131 -30 -43 -33 -59 -13 -59 12 0 83 122 82 141 -1 10 -18 42 -38 72 -36 54 -37 55 -86 55 -26 1 -51 -3 -54 -8z"/>
 <path d="M1867 3574 c-3 -3 3 -18 14 -33 22 -29 18 -56 -10 -71 -20 -10 -34 -3 -50 29 -9 17 -16 20 -24 12 -20 -20 24 -66 64 -66 29 0 37 6 54 37 l20 37 -21 27 c-22 30 -36 38 -47 28z"/>
 <path d="M3580 3552 c-25 -31 -25 -53 -1 -83 30 -37 76 -34 108 7 21 28 23 37 13 49 -12 14 -24 13 -25 -3 -5 -58 -64 -81 -80 -31 -14 43 19 78 55 59 22 -12 38 4 18 17 -28 17 -68 11 -88 -15z"/>
 <path d="M1805 3560 c-11 -17 5 -32 21 -19 7 6 11 15 8 20 -7 12 -21 11 -29 -1z"/>
 <path d="M1964 3485 c-12 -18 -14 -29 -6 -37 7 -7 15 -1 26 20 20 39 3 52 -20 17z"/>
 <path d="M1756 3442 c-3 -6 4 -23 17 -38 31 -36 43 -17 13 21 -14 18 -25 24 -30 17z"/>
 <path d="M1930 3424 c-9 -10 -10 -18 -3 -25 8 -8 14 -5 22 9 13 25 -2 38 -19 16z"/>
 </g>
<g id="layer2" fill="#2c2c2c" stroke="none">
 <path d="M1761 3631 c-12 -16 -21 -32 -21 -36 0 -4 -9 -18 -20 -32 -24 -31 -25 -51 -4 -81 21 -30 35 -19 21 17 -9 25 -6 35 30 89 38 56 42 72 22 72 -4 0 -17 -13 -28 -29z"/>
 <path d="M1916 3651 c-4 -5 -2 -13 4 -16 6 -4 23 -32 39 -64 26 -50 28 -59 16 -81 -13 -25 -11 -45 5 -35 5 3 15 19 24 35 14 29 13 33 -23 97 -38 67 -54 83 -65 64z"/>
 <path d="M3513 3603 c-20 -32 -38 -69 -38 -83 -2 -28 26 -82 63 -122 24 -26 32 -28 97 -28 79 0 87 4 125 75 11 22 26 47 31 55 8 12 2 30 -26 77 -41 70 -59 88 -75 78 -8 -5 -5 -14 8 -29 11 -11 32 -40 47 -63 l27 -43 -34 -57 -34 -58 -70 -3 -71 -3 -36 56 -36 56 30 54 c16 29 36 59 44 65 15 13 11 30 -6 30 -5 0 -26 -26 -46 -57z"/>
 <path d="M1811 3544 c-21 -26 -21 -28 -3 -58 23 -40 65 -43 93 -8 10 13 16 29 12 35 -4 6 -16 -1 -29 -18 -18 -23 -25 -26 -37 -16 -8 6 -17 24 -19 39 -3 25 -1 27 29 27 42 0 48 19 7 23 -25 2 -37 -3 -53 -24z"/>
 <path d="M3586 3548 c-9 -12 -16 -30 -16 -39 0 -25 35 -64 49 -55 9 6 8 12 -4 26 -24 27 -15 54 19 58 28 3 29 2 23 -32 -7 -46 8 -55 27 -17 14 27 14 31 -5 55 -26 33 -71 35 -93 4z"/>
 <path d="M1936 3426 c-15 -23 -23 -26 -81 -26 -54 0 -66 3 -75 20 -6 11 -15 18 -21 15 -14 -9 -11 -23 11 -45 16 -16 33 -20 89 -20 66 0 71 1 92 31 14 20 18 34 12 40 -7 7 -16 1 -27 -15z"/>
 </g>
<g id="layer3" fill="#fefefe" stroke="none">
 <path d="M3547 3617 c-13 -18 -33 -48 -45 -68 l-21 -35 42 -65 42 -64 58 -3 c66 -3 77 3 116 63 47 73 51 84 37 92 -7 5 -25 27 -39 50 -33 52 -33 52 -106 58 -59 4 -61 3 -84 -28z m126 -84 c17 -21 17 -25 2 -45 -22 -33 -73 -33 -87 -2 -27 59 46 100 85 47z"/>
 <path d="M1755 3585 c-36 -56 -42 -79 -25 -90 6 -3 10 -13 10 -22 0 -8 14 -33 31 -54 29 -37 33 -39 89 -39 54 0 59 2 84 34 14 19 26 39 26 44 0 5 9 20 19 33 l19 25 -40 62 -41 62 -69 0 -68 0 -35 -55z m145 -46 c19 -35 -5 -78 -41 -77 -56 2 -65 83 -11 91 15 2 30 5 34 6 4 0 12 -8 18 -20z"/>
 </g>
<g id="layer4" fill="#b00000" stroke="none">
 <path d="M2402 6209 c-36 -14 -17 -28 37 -26 59 3 74 13 37 27 -32 12 -43 12 -74 -1z"/>
 <path d="M3016 6211 c-8 -13 18 -32 49 -35 14 -2 31 -8 37 -14 7 -7 16 -12 21 -12 4 0 28 -9 53 -20 24 -12 48 -18 53 -16 5 3 17 -4 27 -15 10 -11 24 -17 31 -15 7 3 15 1 18 -5 4 -5 12 -9 18 -8 7 1 19 0 27 -4 30 -11 90 -15 95 -7 9 15 -28 29 -88 33 -31 2 -63 9 -71 16 -8 7 -22 14 -29 15 -8 1 -21 7 -28 12 -21 16 -85 44 -101 44 -8 0 -18 3 -22 8 -4 4 -11 7 -14 8 -4 0 -20 6 -35 12 -34 14 -34 14 -41 3z"/>
 <path d="M2287 6160 c-74 -29 -95 -44 -79 -54 12 -7 72 12 93 30 8 8 25 14 37 14 23 0 39 18 26 30 -5 4 -40 -4 -77 -20z"/>
 <path d="M2515 6180 c-8 -13 3 -30 19 -30 8 0 19 -7 27 -16 7 -9 22 -14 36 -11 14 2 29 -3 40 -15 9 -10 27 -18 39 -16 11 1 28 -3 36 -10 12 -10 18 -9 28 3 7 8 10 16 6 16 -3 1 -14 2 -23 4 -10 1 -31 7 -48 14 -16 7 -35 14 -40 15 -6 1 -34 14 -62 29 -31 16 -55 23 -58 17z"/>
 <path d="M2930 6177 c-14 -5 -29 -11 -35 -12 -28 -4 -65 -26 -60 -35 10 -16 40 -12 59 9 10 11 25 16 40 14 13 -3 27 0 31 7 12 19 -8 29 -35 17z"/>
 <path d="M2774 6116 c-18 -14 -18 -15 -1 -21 19 -8 50 12 41 26 -7 13 -17 11 -40 -5z"/>
 <path d="M2095 6092 c-41 -4 -68 -18 -60 -32 5 -9 66 -4 95 7 8 4 21 7 27 7 7 1 13 6 13 11 0 11 -13 12 -75 7z"/>
 <path d="M1900 6069 c-8 -5 -36 -9 -62 -9 -26 0 -50 -5 -53 -10 -4 -6 -10 -8 -14 -5 -5 2 -15 -3 -24 -13 -21 -24 -27 -187 -6 -187 16 0 28 54 29 130 l0 50 62 3 c45 2 68 8 81 21 21 20 10 35 -13 20z"/>
 <path d="M3506 6071 c-3 -4 4 -17 15 -27 16 -14 24 -16 38 -7 10 6 22 8 27 3 5 -4 36 -10 69 -12 36 -2 64 -9 71 -17 8 -11 13 -11 18 -2 9 14 -12 43 -24 36 -5 -3 -11 -1 -15 5 -3 5 -30 10 -60 10 -30 0 -57 5 -60 10 -4 6 -13 7 -23 1 -11 -6 -24 -6 -34 0 -10 5 -19 5 -22 0z"/>
 <path d="M2486 5996 c-35 -29 -27 -54 10 -30 21 14 56 16 236 15 165 -2 216 -5 228 -16 8 -8 49 -59 90 -114 46 -61 79 -96 84 -91 6 6 3 17 -7 28 -9 10 -17 23 -17 28 -1 20 -48 66 -60 59 -9 -5 -11 -4 -6 3 8 14 -42 84 -55 76 -5 -3 -6 1 -3 9 3 8 -6 21 -21 31 -22 14 -53 17 -216 16 -105 -1 -193 1 -197 4 -11 12 -38 5 -66 -18z"/>
 <path d="M2426 5916 c-14 -19 -26 -38 -26 -42 0 -4 -8 -16 -17 -26 -11 -13 -13 -22 -6 -29 9 -9 15 -3 77 93 26 40 2 43 -28 4z"/>
 <path d="M3737 5933 c-11 -10 -8 -51 3 -58 6 -4 8 -10 5 -15 -6 -10 73 -82 86 -78 18 6 13 23 -10 34 -39 20 -57 43 -59 76 -3 35 -14 53 -25 41z"/>
 <path d="M1642 5790 c-58 -45 -66 -56 -51 -65 12 -8 81 54 73 66 -3 5 1 6 9 3 16 -6 43 21 28 30 -5 3 -32 -12 -59 -34z"/>
 <path d="M2325 5762 c-27 -42 -27 -74 1 -51 8 6 14 16 14 22 0 6 8 19 17 29 12 13 13 22 6 29 -8 8 -19 0 -38 -29z"/>
 <path d="M3866 5762 c-7 -12 112 -104 125 -96 13 8 -4 28 -55 62 -62 42 -64 43 -70 34z"/>
 <path d="M3136 5741 c-3 -5 3 -20 14 -34 11 -14 20 -29 20 -34 0 -5 11 -20 25 -33 14 -13 25 -31 25 -41 0 -19 26 -44 34 -31 10 17 -1 39 -52 110 -54 75 -57 78 -66 63z"/>
 <path d="M2271 5681 c-27 -37 -12 -49 19 -16 17 18 21 28 13 36 -7 7 -17 2 -32 -20z"/>
 <path d="M1480 5655 c-24 -25 -48 -45 -53 -45 -5 0 -47 -30 -93 -66 -56 -44 -82 -70 -76 -76 7 -7 32 8 71 41 34 28 72 56 84 62 38 20 137 111 131 120 -9 16 -19 10 -64 -36z"/>
 <path d="M4026 5642 c-3 -5 3 -17 13 -26 11 -10 22 -13 25 -8 3 5 -3 17 -13 26 -11 10 -22 13 -25 8z"/>
 <path d="M2232 5618 c-14 -14 -16 -45 -3 -53 11 -6 20 6 26 35 5 24 -8 33 -23 18z"/>
 <path d="M4076 5603 c-3 -4 -6 -10 -6 -14 0 -12 61 -39 73 -32 5 3 7 2 4 -4 -9 -15 49 -67 67 -60 10 4 13 1 10 -7 -7 -18 15 -31 28 -18 7 7 -9 25 -51 58 -76 59 -117 84 -125 77z"/>
 <path d="M2205 5530 c-9 -10 -14 -24 -10 -30 8 -13 22 -5 35 20 14 26 -4 34 -25 10z"/>
 <path d="M4605 5517 c-79 -12 -88 -15 -79 -28 10 -16 123 -5 141 14 21 21 7 24 -62 14z"/>
 <path d="M796 5491 c-9 -17 -16 -33 -16 -36 0 -3 -7 -19 -15 -35 -8 -16 -15 -31 -14 -32 1 -3 -16 -46 -44 -108 -6 -14 -11 -29 -12 -35 0 -5 -6 -20 -13 -31 -6 -12 -9 -24 -6 -26 2 -3 -2 -11 -11 -18 -8 -7 -15 -20 -15 -30 0 -10 -24 -32 -61 -55 -43 -27 -58 -40 -50 -48 8 -8 19 -5 38 9 16 11 45 28 66 37 28 14 37 24 39 45 2 44 3 46 20 71 10 13 15 28 13 31 -3 4 2 13 10 20 8 7 15 23 15 35 0 12 7 28 16 35 8 7 14 23 12 36 -2 12 6 31 16 43 10 11 16 27 13 35 -3 7 5 24 18 36 22 21 30 22 103 15 51 -4 82 -3 86 3 10 17 -5 21 -101 28 l-91 7 -16 -32z"/>
 <path d="M4705 5511 c-4 -7 1 -24 11 -39 10 -15 17 -31 16 -35 -2 -7 11 -39 54 -133 7 -17 20 -37 28 -43 8 -7 13 -18 10 -25 -3 -7 5 -25 18 -41 13 -17 21 -39 20 -56 -4 -38 65 -88 83 -59 3 5 -5 15 -19 21 -21 10 -30 24 -51 79 -11 30 -20 47 -31 60 -7 8 -13 20 -13 25 0 6 -7 24 -15 40 -8 17 -22 50 -32 75 -10 25 -22 51 -28 58 -6 8 -12 24 -13 35 -5 29 -28 53 -38 38z"/>
 <path d="M4426 5502 c-4 -3 -30 -9 -57 -12 -63 -6 -64 -24 -1 -28 37 -2 52 1 66 17 16 17 8 40 -8 23z"/>
 <path d="M1093 5487 c-11 -18 16 -28 66 -25 28 2 52 8 54 13 3 12 -113 24 -120 12z"/>
 <path d="M2180 5425 c-7 -8 -9 -15 -5 -15 4 0 2 -7 -5 -15 -9 -11 -10 -19 -3 -26 8 -8 14 -5 22 10 7 12 9 21 5 21 -3 0 -1 6 5 14 7 8 8 17 3 20 -6 3 -15 -1 -22 -9z"/>
 <path d="M3289 5375 c-8 -7 1 -54 11 -60 4 -3 13 1 19 9 9 10 7 19 -6 35 -10 12 -21 20 -24 16z"/>
 <path d="M2154 5336 c-3 -8 -4 -21 -1 -28 2 -7 -2 -21 -10 -30 -19 -21 -8 -44 13 -27 8 7 13 18 10 25 -3 7 -1 16 4 19 13 8 13 42 0 50 -6 3 -13 -1 -16 -9z"/>
 <path d="M3316 5271 c-3 -5 -2 -21 4 -35 5 -14 7 -26 4 -26 -4 0 -1 -7 6 -15 14 -17 34 -10 23 8 -4 7 -6 21 -5 33 3 23 -22 51 -32 35z"/>
 <path d="M2113 5158 c-16 -20 -24 -66 -13 -73 14 -8 44 65 32 77 -5 5 -13 4 -19 -4z"/>
 <path d="M3346 5141 c-4 -6 -2 -20 4 -32 12 -22 6 -33 -74 -141 -20 -26 -32 -49 -27 -52 13 -9 74 61 68 78 -4 10 -1 13 8 9 9 -3 18 4 24 19 5 13 16 30 25 37 11 9 14 22 10 40 -8 33 -29 57 -38 42z"/>
 <path d="M4956 5071 c-9 -15 23 -36 35 -24 8 8 5 14 -9 22 -12 6 -23 7 -26 2z"/>
 <path d="M2126 5052 c-8 -13 10 -52 24 -52 18 0 18 16 1 39 -12 15 -21 20 -25 13z"/>
 <path d="M5005 5040 c-8 -13 3 -30 20 -30 23 0 27 18 6 30 -13 7 -22 7 -26 0z"/>
 <path d="M486 5022 c-2 -4 -25 -19 -51 -32 -75 -40 -84 -46 -110 -70 -32 -30 -21 -47 12 -20 14 11 29 20 33 20 10 0 128 79 135 90 3 5 1 11 -4 14 -5 4 -12 3 -15 -2z"/>
 <path d="M5055 5010 c-9 -14 3 -30 22 -30 8 0 32 -13 53 -30 39 -31 77 -43 81 -25 3 17 -147 99 -156 85z"/>
 <path d="M2166 4991 c-9 -14 43 -83 57 -74 5 3 7 1 3 -5 -10 -17 34 -94 51 -88 8 4 11 1 7 -5 -7 -13 35 -61 48 -53 5 3 -8 27 -29 54 -21 27 -48 66 -61 87 -38 63 -69 96 -76 84z"/>
 <path d="M3192 4855 c-17 -24 -27 -47 -22 -50 13 -8 74 75 63 86 -6 6 -21 -8 -41 -36z"/>
 <path d="M319 4846 c-8 -9 6 -137 16 -139 16 -3 18 118 2 131 -8 7 -16 10 -18 8z"/>
 <path d="M3122 4768 c-7 -7 -12 -17 -12 -24 0 -6 -7 -17 -15 -24 -13 -11 -83 -105 -108 -147 -4 -6 -3 -14 2 -17 9 -6 145 167 157 198 7 19 -10 28 -24 14z"/>
 <path d="M2345 4740 c-8 -14 73 -123 85 -115 7 5 -66 125 -76 125 -1 0 -6 -5 -9 -10z"/>
 <path d="M5206 4731 c-13 -14 -16 -39 -16 -119 0 -56 4 -104 10 -107 13 -8 33 44 26 70 -3 11 -2 53 3 93 8 78 3 92 -23 63z"/>
 <path d="M327 4644 c-3 -4 -2 -16 4 -26 8 -15 14 -17 22 -9 8 8 7 15 -4 26 -8 9 -18 13 -22 9z"/>
 <path d="M2455 4590 c-7 -12 7 -40 33 -63 30 -28 34 -5 6 36 -27 40 -30 42 -39 27z"/>
 <path d="M337 4533 c-4 -6 -5 -18 -2 -27 3 -9 7 -23 10 -32 4 -13 8 -14 20 -4 19 16 19 23 -3 51 -12 14 -21 18 -25 12z"/>
 <path d="M2892 4455 c-29 -36 -52 -68 -52 -71 0 -3 -16 -24 -35 -47 -24 -27 -32 -44 -25 -51 12 -12 7 -17 105 112 46 62 73 108 68 113 -5 5 -30 -17 -61 -56z"/>
 <path d="M2525 4491 c-10 -17 15 -45 29 -31 7 7 5 15 -6 26 -11 11 -18 13 -23 5z"/>
 <path d="M2555 4440 c-9 -14 14 -42 28 -33 6 3 7 1 3 -6 -10 -16 34 -75 47 -62 6 6 -1 24 -23 53 -48 61 -47 61 -55 48z"/>
 <path d="M5190 4430 c-14 -26 -4 -45 16 -29 16 13 18 35 5 44 -6 3 -15 -4 -21 -15z"/>
 <path d="M344 4357 c-3 -9 -3 -25 0 -34 6 -15 8 -15 24 0 15 16 15 18 0 34 -16 15 -18 15 -24 0z"/>
 <path d="M2635 4331 c-7 -13 7 -40 33 -64 13 -12 22 -15 27 -8 9 15 -4 33 -20 27 -8 -3 -11 2 -8 13 5 20 -22 48 -32 32z"/>
 <path d="M5196 4312 c-3 -5 23 -37 58 -71 43 -43 66 -59 71 -51 5 8 -15 34 -51 71 -60 60 -69 65 -78 51z"/>
 <path d="M242 4208 c-51 -54 -90 -104 -86 -109 7 -12 67 43 146 134 88 100 38 79 -60 -25z"/>
 <path d="M2641 4236 c-8 -10 -9 -16 -2 -21 14 -8 53 13 46 26 -9 13 -31 11 -44 -5z"/>
 <path d="M2765 4240 c-7 -12 42 -33 56 -24 14 8 -10 34 -32 34 -10 0 -21 -5 -24 -10z"/>
 <path d="M2581 4216 c-9 -10 -9 -16 -1 -21 13 -8 42 14 34 26 -8 13 -20 11 -33 -5z"/>
 <path d="M2906 4211 c-3 -5 1 -14 8 -20 16 -13 32 2 21 19 -8 12 -22 13 -29 1z"/>
 <path d="M2408 4186 c-16 -8 -28 -12 -28 -9 0 3 -6 0 -13 -6 -8 -6 -17 -8 -20 -5 -3 3 -11 2 -18 -2 -7 -4 -24 -9 -38 -10 -33 -4 -49 -21 -28 -30 9 -3 23 -4 30 -1 6 2 14 4 17 4 3 0 16 6 30 13 14 8 40 15 58 17 40 3 75 21 67 34 -8 13 -25 11 -57 -5z"/>
 <path d="M2965 4191 c-7 -13 32 -34 46 -26 7 5 6 11 -2 21 -13 16 -35 18 -44 5z"/>
 <path d="M3046 4181 c-9 -14 22 -34 41 -26 17 6 17 7 -1 21 -23 16 -33 18 -40 5z"/>
 <path d="M3155 4151 c-7 -13 32 -34 46 -26 7 5 6 11 -2 21 -13 16 -35 18 -44 5z"/>
 <path d="M2678 4093 c-42 -51 -51 -73 -29 -73 4 0 22 20 40 45 25 36 36 43 46 35 22 -19 30 10 8 31 -19 19 -20 19 -65 -38z"/>
 <path d="M2090 4054 c-44 -42 -77 -81 -74 -86 4 -6 36 19 73 54 36 36 79 70 94 76 28 12 29 32 1 32 -8 0 -50 -34 -94 -76z"/>
 <path d="M3266 4121 c-7 -11 74 -52 87 -44 6 3 7 2 4 -4 -3 -5 26 -41 66 -80 109 -106 121 -113 187 -113 62 0 76 6 59 27 -7 8 -34 13 -73 13 -61 0 -62 1 -111 50 -27 28 -56 48 -63 45 -7 -2 -11 -1 -8 4 3 5 -19 32 -50 60 -52 48 -86 62 -98 42z"/>
 <path d="M5385 4110 c-3 -5 17 -34 45 -64 l52 -55 -25 -33 c-42 -57 -79 -127 -72 -138 9 -15 20 -6 39 32 9 18 26 47 36 63 53 83 54 73 -10 143 -33 35 -61 58 -65 52z"/>
 <path d="M2767 4084 c-8 -14 121 -176 134 -168 7 4 5 12 -5 23 -9 10 -16 22 -16 27 -1 17 -106 128 -113 118z"/>
 <path d="M82 4025 c-22 -23 -22 -26 -8 -54 19 -35 32 -45 41 -31 4 6 -1 20 -11 31 -16 18 -16 20 1 39 28 30 5 45 -23 15z"/>
 <path d="M2577 3965 c-26 -30 -43 -56 -37 -60 15 -9 32 5 26 21 -3 7 0 11 7 8 16 -6 72 65 61 76 -5 5 -30 -14 -57 -45z"/>
 <path d="M117 3914 c-3 -3 10 -34 29 -68 20 -33 44 -80 55 -103 11 -23 24 -45 29 -48 14 -9 22 12 11 32 -5 10 -12 25 -15 33 -3 8 -20 38 -36 65 -16 28 -34 60 -40 73 -9 22 -21 28 -33 16z"/>
 <path d="M1825 3910 c-11 -17 5 -30 36 -30 36 0 72 17 64 31 -8 12 -92 12 -100 -1z"/>
 <path d="M1571 3877 c-6 -8 -8 -17 -5 -20 10 -9 45 13 39 24 -9 13 -21 11 -34 -4z"/>
 <path d="M3895 3881 c-7 -13 32 -34 47 -25 7 5 5 11 -7 21 -22 15 -32 16 -40 4z"/>
 <path d="M1456 3851 c-10 -11 -18 -26 -20 -34 -1 -8 -8 -22 -15 -31 -17 -20 -5 -41 15 -25 8 7 13 18 10 24 -2 7 9 25 24 40 16 16 27 32 24 37 -8 13 -19 10 -38 -11z"/>
 <path d="M2460 3825 c-29 -30 -41 -48 -34 -55 7 -7 25 5 54 35 29 30 41 48 34 55 -7 7 -25 -5 -54 -35z"/>
 <path d="M2946 3862 c-7 -12 69 -112 85 -112 22 0 13 20 -30 69 -31 35 -50 50 -55 43z"/>
 <path d="M4015 3861 c-9 -15 37 -43 50 -30 7 7 4 15 -9 25 -23 16 -33 18 -41 5z"/>
 <path d="M5355 3790 c-13 -14 -15 -24 -8 -31 7 -7 15 -2 26 15 21 31 6 43 -18 16z"/>
 <path d="M4067 3774 c-3 -4 -2 -16 4 -26 8 -15 14 -17 22 -9 8 8 7 15 -4 26 -8 9 -18 13 -22 9z"/>
 <path d="M2354 3693 c-63 -85 -66 -91 -55 -97 12 -8 94 101 86 114 -3 6 1 7 9 4 18 -7 34 22 19 37 -6 6 -28 -16 -59 -58z"/>
 <path d="M5313 3733 c-3 -10 -19 -34 -35 -54 -28 -37 -40 -72 -25 -77 11 -4 97 130 91 140 -9 14 -24 9 -31 -9z"/>
 <path d="M4087 3714 c-3 -5 1 -24 9 -42 11 -28 18 -32 41 -29 32 4 38 30 9 35 -11 2 -27 13 -36 25 -9 11 -19 16 -23 11z"/>
 <path d="M247 3683 c-4 -6 1 -20 10 -32 11 -16 18 -20 26 -12 8 8 5 17 -10 32 -11 12 -23 17 -26 12z"/>
 <path d="M1345 3670 c-7 -12 22 -32 42 -28 28 5 21 30 -9 34 -15 1 -30 -1 -33 -6z"/>
 <path d="M1250 3645 c-10 -12 -9 -16 5 -21 20 -8 68 13 60 26 -9 15 -51 12 -65 -5z"/>
 <path d="M4207 3653 c-11 -11 14 -33 38 -33 29 0 38 10 24 27 -12 14 -51 18 -62 6z"/>
 <path d="M1170 3634 c-14 -7 -25 -19 -25 -26 -1 -7 -6 -23 -13 -35 -7 -13 -10 -23 -6 -23 3 0 1 -7 -6 -15 -16 -19 -3 -40 16 -24 8 6 13 17 12 23 -1 6 3 21 10 34 7 12 9 22 5 22 -4 0 7 9 25 20 18 11 30 25 27 30 -8 12 -14 12 -45 -6z"/>
 <path d="M3145 3630 c-5 -7 4 -23 23 -42 16 -17 32 -26 35 -21 3 4 -7 24 -22 42 -20 24 -30 30 -36 21z"/>
 <path d="M4336 3621 c-3 -4 3 -16 13 -25 22 -20 40 -4 21 19 -14 17 -26 19 -34 6z"/>
 <path d="M297 3604 c-3 -4 -2 -16 4 -26 8 -15 14 -17 22 -9 8 8 7 15 -4 26 -8 9 -18 13 -22 9z"/>
 <path d="M5210 3568 c-6 -13 -19 -36 -30 -53 -38 -60 -50 -89 -41 -98 8 -8 98 131 101 158 3 20 -20 15 -30 -7z"/>
 <path d="M2243 3553 c-9 -15 -34 -48 -55 -72 -33 -38 -42 -68 -18 -59 11 4 110 130 110 139 0 21 -21 16 -37 -8z"/>
 <path d="M327 3554 c-6 -6 30 -81 43 -89 22 -14 19 20 -4 56 -28 41 -29 42 -39 33z"/>
 <path d="M4375 3541 c-10 -17 15 -45 29 -31 7 7 5 15 -6 26 -11 11 -18 13 -23 5z"/>
 <path d="M3245 3511 c-4 -8 -1 -19 8 -28 19 -20 30 -1 13 22 -10 14 -15 15 -21 6z"/>
 <path d="M1100 3465 c-7 -8 -10 -21 -7 -30 4 -8 2 -17 -4 -20 -5 -4 -9 -12 -8 -18 1 -7 -3 -25 -10 -42 -7 -16 -14 -39 -16 -50 -1 -11 -6 -28 -10 -38 -4 -11 -3 -23 3 -29 8 -8 13 -7 18 6 4 9 4 20 0 23 -3 4 1 15 11 25 9 10 13 18 9 18 -4 0 -1 10 5 22 7 13 14 32 15 43 5 36 15 78 20 86 9 15 -14 18 -26 4z"/>
 <path d="M4396 3471 c-3 -5 1 -14 8 -20 16 -13 32 2 21 19 -8 12 -22 13 -29 1z"/>
 <path d="M387 3454 c-3 -4 0 -16 8 -28 8 -11 15 -28 15 -37 0 -9 6 -21 13 -27 7 -6 14 -25 15 -43 3 -38 20 -72 32 -64 12 7 1 65 -15 85 -7 8 -10 21 -8 28 3 7 -7 31 -21 52 -28 42 -29 44 -39 34z"/>
 <path d="M3296 3441 c-3 -5 33 -55 80 -112 111 -134 120 -143 128 -131 6 10 -91 139 -134 177 -12 11 -28 32 -36 47 -15 28 -28 35 -38 19z"/>
 <path d="M2121 3395 c-28 -37 -15 -54 17 -21 19 18 23 29 15 37 -7 7 -16 3 -32 -16z"/>
 <path d="M5112 3407 c-6 -7 -13 -29 -15 -49 -2 -20 -8 -43 -14 -50 -14 -18 -24 -76 -14 -83 13 -7 28 15 37 55 10 42 9 41 17 60 21 54 14 97 -11 67z"/>
 <path d="M4427 3374 c-3 -4 -2 -15 4 -26 5 -10 8 -22 5 -27 -3 -5 0 -14 8 -20 8 -7 12 -21 9 -32 -3 -11 1 -27 10 -37 9 -9 16 -20 16 -24 1 -5 1 -9 2 -10 0 -2 3 -21 5 -43 5 -42 21 -68 35 -59 12 7 11 27 -3 61 -6 15 -12 31 -13 36 -2 4 -4 10 -5 15 -1 4 -3 12 -4 17 -1 6 -7 21 -13 35 -6 14 -10 28 -9 31 0 3 -5 13 -12 21 -7 9 -10 22 -7 30 6 16 -18 42 -28 32z"/>
 <path d="M2037 3288 c-22 -26 -32 -47 -27 -52 14 -14 52 24 47 45 -3 11 0 16 8 13 17 -7 30 15 17 28 -6 6 -22 -6 -45 -34z"/>
 <path d="M458 3235 c-8 -8 11 -76 25 -93 18 -22 28 2 16 39 -13 38 -32 63 -41 54z"/>
 <path d="M1025 3230 c-4 -6 -3 -16 3 -22 6 -6 12 -6 17 2 4 6 3 16 -3 22 -6 6 -12 6 -17 -2z"/>
 <path d="M5044 3186 c-8 -21 4 -52 15 -40 15 15 17 47 4 51 -7 3 -16 -2 -19 -11z"/>
 <path d="M1000 3139 c-6 -11 -9 -28 -6 -36 4 -9 1 -22 -6 -30 -7 -8 -13 -21 -14 -28 -1 -7 -5 -22 -8 -33 -4 -11 -3 -23 2 -26 15 -9 35 22 29 44 -3 10 1 24 8 30 8 6 12 17 9 25 -3 7 -1 16 5 20 14 8 14 42 2 50 -6 3 -15 -4 -21 -16z"/>
 <path d="M3536 3151 c-10 -15 3 -33 20 -27 8 3 11 0 8 -8 -7 -17 14 -32 27 -19 6 6 -2 20 -20 37 -18 17 -31 24 -35 17z"/>
 <path d="M1886 3111 c-9 -10 -25 -17 -35 -14 -9 2 -23 -2 -30 -10 -17 -21 3 -31 31 -15 13 7 28 11 34 10 17 -3 39 27 27 39 -6 6 -15 3 -27 -10z"/>
 <path d="M499 3105 c-3 -24 4 -61 13 -72 16 -20 29 -5 22 25 -7 28 -33 63 -35 47z"/>
 <path d="M5023 3097 c-15 -18 -24 -75 -13 -82 11 -7 21 9 30 51 8 36 -1 52 -17 31z"/>
 <path d="M3676 3081 c-8 -12 21 -34 34 -26 8 5 8 11 -1 21 -13 16 -25 18 -33 5z"/>
 <path d="M1720 3060 c-8 -5 -22 -7 -31 -5 -20 7 -45 -20 -29 -30 6 -4 17 -2 24 4 7 6 20 9 28 6 8 -3 20 1 27 9 14 17 1 28 -19 16z"/>
 <path d="M3745 3060 c-10 -17 12 -37 25 -24 8 8 6 15 -4 23 -10 9 -16 9 -21 1z"/>
 <path d="M1599 3024 c-9 -11 -8 -15 5 -20 21 -8 49 3 44 18 -6 17 -35 18 -49 2z"/>
 <path d="M3856 3031 c-9 -14 22 -34 41 -26 17 6 17 7 -1 21 -23 16 -33 18 -40 5z"/>
 <path d="M4526 3022 c-3 -6 0 -15 8 -21 8 -7 12 -21 9 -31 -6 -22 14 -53 28 -44 14 8 11 40 -6 54 -8 7 -13 16 -10 20 3 4 -2 13 -9 19 -8 7 -17 8 -20 3z"/>
 <path d="M1505 2997 c-12 -10 -14 -16 -7 -21 15 -9 54 12 47 25 -8 12 -18 11 -40 -4z"/>
 <path d="M3955 3001 c-8 -14 33 -34 53 -26 15 6 15 8 -2 21 -23 16 -42 18 -51 5z"/>
 <path d="M4987 3004 c-11 -11 -8 -62 3 -69 11 -7 18 7 22 44 3 24 -12 38 -25 25z"/>
 <path d="M528 2995 c-8 -9 3 -53 17 -65 18 -15 26 1 17 35 -8 28 -23 41 -34 30z"/>
 <path d="M4076 2971 c-8 -12 21 -34 34 -26 8 5 8 11 -1 21 -13 16 -25 18 -33 5z"/>
 <path d="M1321 2956 c-9 -10 -9 -16 -1 -21 13 -8 42 14 34 26 -8 13 -20 11 -33 -5z"/>
 <path d="M4146 2961 c-9 -14 22 -34 40 -27 13 5 14 9 4 21 -14 17 -36 20 -44 6z"/>
 <path d="M1265 2940 c-4 -6 -15 -8 -24 -5 -10 3 -24 -1 -30 -9 -7 -8 -19 -12 -26 -10 -18 7 -57 -14 -50 -27 9 -14 41 -11 55 6 7 8 16 12 22 9 5 -3 15 0 23 6 8 6 19 9 25 5 13 -8 42 14 34 26 -7 12 -21 11 -29 -1z"/>
 <path d="M4225 2940 c-10 -17 12 -37 25 -24 8 8 6 15 -4 23 -10 9 -16 9 -21 1z"/>
 <path d="M949 2936 c-4 -17 -7 -26 -8 -28 -9 -11 -9 -48 -1 -53 17 -10 33 5 21 19 -6 7 -8 16 -4 20 11 11 12 35 2 42 -5 3 -10 3 -10 0z"/>
 <path d="M4326 2912 c-9 -15 21 -35 44 -29 11 3 23 1 26 -4 3 -5 11 -8 17 -7 7 1 23 -4 35 -11 13 -7 26 -10 29 -7 4 3 12 1 19 -5 7 -6 18 -8 24 -4 15 9 -9 38 -26 31 -7 -3 -16 -1 -20 5 -3 5 -13 9 -22 7 -10 -1 -23 1 -29 5 -7 5 -21 10 -30 12 -10 2 -28 7 -39 10 -12 4 -24 2 -28 -3z"/>
 <path d="M4965 2896 c-17 -25 -17 -55 -1 -59 12 -3 37 71 26 78 -5 3 -16 -6 -25 -19z"/>
 <path d="M559 2905 c-3 -23 4 -61 12 -71 5 -6 7 -13 4 -15 -7 -8 21 -80 31 -80 14 0 16 25 3 57 -7 16 -14 43 -16 59 -4 29 -32 69 -34 50z"/>
 <path d="M4575 2896 c-3 -9 -7 -22 -9 -30 -3 -8 -2 -17 1 -20 10 -10 33 15 33 35 0 23 -19 35 -25 15z"/>
 <path d="M1045 2880 c-3 -5 -12 -7 -19 -4 -17 7 -41 -22 -26 -31 6 -4 17 -2 24 4 7 6 15 8 19 5 9 -9 48 16 42 27 -8 12 -32 12 -40 -1z"/>
 <path d="M4936 2791 c-9 -9 -16 -25 -16 -34 0 -23 19 -31 26 -10 3 10 10 26 15 35 12 24 -5 31 -25 9z"/>
 <path d="M617 2673 c-2 -4 -3 -21 -2 -38 2 -37 29 -41 33 -4 3 25 -22 59 -31 42z"/>
 <path d="M4893 2654 c-7 -18 9 -51 23 -46 13 3 10 55 -4 60 -7 2 -15 -4 -19 -14z"/>
 <path d="M4915 2510 c-13 -20 6 -328 20 -340 14 -12 31 3 21 18 -3 5 -8 78 -11 162 -5 146 -13 187 -30 160z"/>
 <path d="M602 2348 c-8 -8 -12 -46 -12 -104 0 -51 -5 -105 -10 -120 -13 -33 1 -52 21 -28 14 18 31 241 19 257 -3 4 -11 2 -18 -5z"/>
 <path d="M1231 2076 c-10 -12 -8 -17 7 -25 14 -7 18 -18 15 -36 -6 -26 13 -59 28 -49 5 3 6 17 2 32 -4 15 -6 36 -5 47 1 20 -14 45 -28 45 -4 0 -13 -6 -19 -14z"/>
 <path d="M4245 2070 c-11 -13 -15 -24 -9 -30 12 -12 59 24 50 39 -10 16 -20 14 -41 -9z"/>
 <path d="M1130 2029 c-30 -16 -60 -29 -67 -29 -16 0 -27 -20 -17 -30 10 -10 156 61 156 75 -1 17 -16 14 -72 -16z"/>
 <path d="M4305 2050 c-7 -11 94 -62 107 -54 14 9 -1 23 -45 44 -47 23 -53 24 -62 10z"/>
 <path d="M572 1983 c-6 -10 -13 -92 -16 -182 -3 -89 -9 -167 -12 -173 -12 -19 12 -29 29 -11 13 15 16 48 18 196 1 98 -1 180 -4 183 -3 3 -10 -3 -15 -13z"/>
 <path d="M4435 1991 c-3 -5 24 -23 60 -40 43 -20 63 -35 59 -44 -6 -18 21 -42 31 -27 3 5 3 16 -2 23 -4 6 -8 18 -8 25 0 13 -21 27 -84 56 -39 18 -48 19 -56 7z"/>
 <path d="M4955 1977 c-9 -22 -2 -62 10 -60 6 1 11 14 13 29 4 32 -14 56 -23 31z"/>
 <path d="M972 1952 c-23 -17 -46 -87 -35 -104 9 -16 33 14 33 43 0 22 7 32 30 44 17 9 28 20 25 25 -9 15 -27 12 -53 -8z"/>
 <path d="M1278 1925 c-8 -9 3 -88 14 -102 17 -22 26 -5 21 40 -5 41 -23 73 -35 62z"/>
 <path d="M4210 1891 c-13 -25 -10 -62 5 -62 13 0 26 63 15 75 -4 4 -13 -2 -20 -13z"/>
 <path d="M4575 1838 c-8 -20 12 -61 26 -53 13 9 11 28 -5 51 -13 17 -15 17 -21 2z"/>
 <path d="M4954 1825 c-8 -20 8 -53 22 -45 11 6 7 41 -6 54 -6 6 -12 3 -16 -9z"/>
 <path d="M930 1805 c-14 -17 -31 -95 -23 -108 10 -16 33 16 33 45 0 16 5 38 10 48 13 24 -3 35 -20 15z"/>
 <path d="M1307 1774 c-9 -9 4 -96 16 -112 17 -22 25 1 18 51 -8 48 -22 73 -34 61z"/>
 <path d="M4180 1744 c-9 -10 -10 -18 -3 -25 8 -8 14 -5 22 9 13 25 -2 38 -19 16z"/>
 <path d="M4965 1721 c-4 -8 -1 -19 8 -28 19 -20 30 -1 13 22 -10 14 -15 15 -21 6z"/>
 <path d="M4604 1696 c-3 -8 0 -24 6 -36 17 -31 34 -11 21 23 -12 30 -19 34 -27 13z"/>
 <path d="M4170 1675 c-9 -11 -10 -19 -3 -26 7 -7 14 -5 23 6 9 11 10 19 3 26 -7 7 -14 5 -23 -6z"/>
 <path d="M897 1648 c-19 -29 -30 -105 -18 -113 13 -8 31 27 31 60 0 14 5 35 10 45 15 28 -6 35 -23 8z"/>
 <path d="M4975 1631 c-10 -17 15 -45 29 -31 7 7 5 15 -6 26 -11 11 -18 13 -23 5z"/>
 <path d="M1338 1615 c-8 -9 3 -88 14 -102 17 -22 26 -5 21 40 -5 41 -23 73 -35 62z"/>
 <path d="M4152 1608 c-14 -14 -16 -35 -3 -43 14 -8 35 35 24 46 -5 5 -14 4 -21 -3z"/>
 <path d="M4634 1546 c-8 -20 7 -52 22 -49 15 3 15 27 0 48 -14 19 -15 19 -22 1z"/>
 <path d="M540 1525 c-9 -11 -10 -19 -3 -26 7 -7 14 -5 23 6 9 11 10 19 3 26 -7 7 -14 5 -23 -6z"/>
 <path d="M869 1504 c-13 -16 -30 -104 -22 -117 9 -15 33 16 33 44 0 15 4 39 10 53 11 30 -2 43 -21 20z"/>
 <path d="M537 1473 c-7 -11 -11 -202 -5 -209 15 -14 27 32 29 109 2 80 -9 124 -24 100z"/>
 <path d="M4645 1471 c-10 -17 15 -45 29 -31 7 7 5 15 -6 26 -11 11 -18 13 -23 5z"/>
 <path d="M4985 1468 c-3 -8 -4 -57 -3 -109 2 -76 6 -94 18 -94 12 0 15 17 15 97 0 63 -4 101 -12 109 -10 10 -14 9 -18 -3z"/>
 <path d="M1368 1465 c-8 -8 2 -85 14 -108 16 -31 28 -8 22 41 -6 45 -24 79 -36 67z"/>
 <path d="M4120 1444 c-9 -10 -10 -18 -3 -25 8 -8 14 -5 22 9 13 25 -2 38 -19 16z"/>
 <path d="M4110 1385 c-9 -11 -10 -19 -3 -26 7 -7 14 -5 23 6 9 11 10 19 3 26 -7 7 -14 5 -23 -6z"/>
 <path d="M4664 1387 c-7 -20 -2 -47 11 -50 14 -3 19 43 6 56 -7 7 -12 6 -17 -6z"/>
 <path d="M847 1354 c-8 -8 3 -65 16 -81 16 -22 25 -5 17 33 -9 39 -22 58 -33 48z"/>
 <path d="M2223 1338 c-2 -5 -2 -12 1 -17 3 -5 -2 -8 -12 -7 -10 0 -17 -6 -16 -15 1 -9 -6 -16 -15 -15 -9 1 -15 -6 -15 -16 1 -10 -4 -14 -12 -11 -9 3 -60 -40 -132 -109 -64 -63 -127 -120 -140 -127 -13 -7 -21 -18 -19 -26 3 -7 -1 -12 -11 -11 -10 0 -16 -6 -16 -16 1 -9 -4 -14 -11 -12 -16 6 -29 -12 -20 -26 7 -12 56 30 280 239 l154 144 126 -2 c70 -1 133 -5 140 -7 18 -7 27 11 12 24 -14 12 -287 21 -294 10z"/>
 <path d="M3052 1327 c-7 -8 -10 -16 -8 -18 9 -8 166 6 169 16 4 17 -148 18 -161 2z"/>
 <path d="M2644 1311 c-2 -2 1 -10 7 -18 16 -19 133 -18 149 2 7 8 11 15 9 15 -25 4 -162 4 -165 1z"/>
 <path d="M3256 1311 c-3 -5 1 -14 8 -20 16 -13 32 2 21 19 -8 12 -22 13 -29 1z"/>
 <path d="M4092 1308 c-14 -14 -16 -35 -3 -43 14 -8 35 35 24 46 -5 5 -14 4 -21 -3z"/>
 <path d="M1398 1305 c-9 -9 7 -80 17 -77 13 3 13 74 -1 79 -5 2 -13 1 -16 -2z"/>
 <path d="M4642 1258 c-14 -14 -16 -35 -3 -43 14 -8 35 35 24 46 -5 5 -14 4 -21 -3z"/>
 <path d="M4080 1235 c-9 -11 -10 -19 -3 -26 7 -7 14 -5 23 6 9 11 10 19 3 26 -7 7 -14 5 -23 -6z"/>
 <path d="M5005 1231 c-10 -17 15 -45 29 -31 7 7 5 15 -6 26 -11 11 -18 13 -23 5z"/>
 <path d="M886 1213 c-11 -11 -6 -48 10 -71 18 -27 39 -20 24 8 -5 10 -10 28 -10 39 0 21 -13 35 -24 24z"/>
 <path d="M4059 1156 c-9 -20 -10 -29 -1 -38 8 -8 14 -4 23 16 9 20 10 29 1 38 -8 8 -14 4 -23 -16z"/>
 <path d="M1429 1155 c-6 -59 12 -122 31 -110 12 7 0 88 -16 105 -8 8 -14 10 -15 5z"/>
 <path d="M4609 1136 c-9 -20 -10 -29 -1 -38 8 -8 14 -4 22 17 15 39 -4 58 -21 21z"/>
 <path d="M3456 1131 c-6 -9 183 -192 207 -200 7 -2 88 -78 182 -168 93 -89 173 -163 178 -163 5 0 41 -30 79 -66 53 -49 73 -63 82 -54 8 8 5 16 -14 30 -14 11 -31 18 -38 15 -7 -3 -11 -1 -7 4 7 12 -126 133 -141 127 -6 -2 -11 3 -10 12 0 10 -6 17 -15 16 -9 -1 -16 4 -15 10 2 17 -327 317 -341 312 -7 -3 -12 -2 -10 2 4 13 -131 134 -137 123z"/>
 <path d="M5015 1120 c-11 -19 -5 -183 7 -198 18 -21 21 -7 19 95 -2 95 -11 128 -26 103z"/>
 <path d="M516 1093 c-3 -3 -6 -31 -6 -62 -1 -31 -5 -75 -9 -99 -9 -45 -1 -61 18 -38 16 19 27 191 14 199 -6 4 -13 4 -17 0z"/>
 <path d="M4053 1087 c-22 -27 -8 -62 43 -109 68 -63 79 -48 13 18 -44 45 -50 54 -40 72 12 23 -1 39 -16 19z"/>
 <path d="M917 1083 c-12 -11 -8 -37 9 -61 22 -32 34 -18 20 23 -14 40 -20 48 -29 38z"/>
 <path d="M4580 1020 c-8 -15 -9 -25 -2 -32 7 -7 14 -3 22 12 8 15 9 25 2 32 -7 7 -14 3 -22 -12z"/>
 <path d="M1346 940 c-42 -45 -74 -85 -70 -91 9 -15 96 72 89 89 -2 7 -1 11 4 8 4 -3 22 10 40 28 18 19 28 36 23 40 -5 3 -44 -30 -86 -74z"/>
 <path d="M936 982 c-5 -9 10 -78 22 -97 4 -5 8 -28 9 -49 2 -22 10 -50 18 -63 19 -28 40 -22 25 7 -5 10 -10 30 -10 44 0 14 -5 28 -10 31 -6 4 -10 12 -9 18 7 46 -29 134 -45 109z"/>
 <path d="M4561 956 c-7 -8 -10 -20 -6 -26 4 -6 1 -17 -5 -25 -7 -8 -9 -23 -5 -32 6 -17 7 -17 21 2 8 11 12 26 9 33 -3 8 0 21 6 29 8 9 9 17 2 24 -7 7 -14 5 -22 -5z"/>
 <path d="M4176 911 c-10 -15 3 -33 20 -27 7 3 11 0 8 -7 -6 -17 132 -152 141 -138 4 7 -27 47 -78 98 -53 54 -87 82 -91 74z"/>
 <path d="M1715 860 c-11 -17 5 -32 21 -19 7 6 11 15 8 20 -7 12 -21 11 -29 -1z"/>
 <path d="M4521 786 c-7 -8 -11 -20 -10 -28 2 -7 -2 -23 -9 -35 -7 -12 -8 -24 -3 -27 10 -7 33 17 29 30 -1 5 4 20 11 33 15 28 1 50 -18 27z"/>
 <path d="M1141 725 c-43 -49 -28 -67 17 -21 26 25 33 39 26 46 -8 8 -20 1 -43 -25z"/>
 <path d="M5039 760 c-4 -13 -5 -66 -2 -73 6 -10 33 12 33 27 0 13 -28 55 -31 46z"/>
 <path d="M1003 714 c-10 -26 21 -99 43 -101 25 -4 69 31 59 46 -5 9 -12 8 -26 -5 -24 -22 -49 -4 -49 37 0 33 -17 48 -27 23z"/>
 <path d="M487 704 c-4 -4 -3 -12 0 -18 4 -6 8 -18 10 -26 1 -8 5 -31 9 -50 5 -19 8 -39 9 -45 0 -5 4 -15 8 -22 4 -7 8 -28 9 -48 1 -37 21 -64 33 -45 3 5 3 16 -2 23 -4 6 -6 22 -4 35 1 13 -3 30 -10 38 -7 9 -14 35 -15 60 -1 24 -6 50 -13 57 -6 8 -9 16 -6 19 3 3 -1 10 -8 16 -8 7 -17 9 -20 6z"/>
 <path d="M1546 691 c-10 -11 -13 -22 -8 -25 5 -3 17 3 26 13 10 11 13 22 8 25 -5 3 -17 -3 -26 -13z"/>
 <path d="M4487 660 c-9 -13 -22 -20 -30 -17 -21 8 -29 -3 -16 -20 18 -21 45 -15 64 13 22 34 5 56 -18 24z"/>
 <path d="M1481 637 c-6 -8 -8 -17 -5 -20 10 -9 45 13 39 24 -9 13 -21 11 -34 -4z"/>
 <path d="M5020 625 c-6 -7 -10 -24 -9 -37 2 -13 0 -29 -4 -35 -5 -7 -5 -18 -2 -23 12 -19 32 8 33 45 1 20 4 40 7 45 9 15 -12 20 -25 5z"/>
 <path d="M4987 504 c-11 -11 -8 -82 3 -89 12 -8 19 9 22 54 3 32 -10 50 -25 35z"/>
 <path d="M555 418 c-7 -22 9 -123 20 -120 15 3 13 124 -2 129 -7 3 -15 -1 -18 -9z"/>
 <path d="M4256 411 c-3 -4 24 -36 59 -70 87 -83 108 -70 24 15 -64 65 -74 71 -83 55z"/>
 <path d="M4970 385 c-15 -18 -20 -87 -6 -95 11 -6 37 92 27 103 -4 4 -14 1 -21 -8z"/>
 <path d="M1056 236 c-88 -84 -155 -155 -150 -159 6 -3 39 23 74 58 36 36 69 65 75 65 16 0 187 175 179 183 -4 4 -10 7 -13 7 -3 -1 -78 -70 -165 -154z"/>
 <path d="M576 271 c-9 -14 21 -84 34 -76 5 3 7 18 4 33 -8 34 -29 58 -38 43z"/>
 <path d="M4445 231 c-7 -12 35 -42 47 -35 5 3 2 15 -8 25 -19 21 -30 24 -39 10z"/>
 <path d="M4936 221 c-4 -5 -19 -12 -35 -16 -16 -3 -36 -14 -46 -24 -9 -11 -24 -17 -33 -14 -10 2 -26 -5 -36 -16 -10 -11 -24 -17 -32 -14 -17 6 -56 -25 -48 -38 3 -5 18 -2 34 6 17 9 32 15 35 15 3 0 20 7 38 17 17 9 34 18 37 18 53 9 122 56 101 69 -5 4 -12 2 -15 -3z"/>
 <path d="M635 191 c-7 -12 102 -64 116 -56 16 10 -8 33 -42 40 -16 4 -31 11 -34 16 -8 12 -32 12 -40 0z"/>
 <path d="M766 131 c-6 -9 50 -47 76 -53 31 -7 19 19 -17 39 -46 25 -52 26 -59 14z"/>
 <path d="M4576 112 c-6 -11 49 -53 58 -45 7 7 -33 53 -45 53 -4 0 -10 -4 -13 -8z"/>
 </g>
<g id="layer5" fill="#000000" stroke="none">
 <path d="M2624 6439 c-27 -17 -56 -38 -64 -46 -30 -29 -153 -113 -165 -113 -7 0 -39 -13 -71 -30 -32 -16 -64 -30 -71 -30 -6 0 -24 -6 -40 -14 -70 -36 -104 -45 -174 -47 -40 -1 -79 -6 -84 -10 -6 -5 -47 -11 -90 -14 -44 -4 -84 -10 -90 -15 -5 -4 -27 -10 -47 -14 -50 -9 -68 -46 -68 -140 -1 -67 -3 -72 -32 -96 -17 -14 -49 -42 -72 -62 -23 -21 -46 -38 -52 -38 -7 0 -19 -11 -28 -25 -9 -14 -23 -25 -32 -25 -8 0 -17 -7 -20 -15 -3 -8 -16 -17 -27 -21 -12 -4 -38 -22 -57 -40 -97 -92 -79 -85 -214 -78 -67 4 -125 10 -131 14 -5 4 -59 10 -119 13 -100 6 -108 5 -113 -13 -3 -10 -11 -21 -19 -24 -8 -3 -14 -16 -14 -29 0 -13 -7 -32 -15 -43 -8 -10 -15 -26 -15 -34 0 -8 -14 -42 -30 -75 -16 -33 -30 -66 -30 -73 0 -8 -6 -26 -14 -40 -7 -15 -22 -46 -32 -69 -14 -31 -30 -48 -62 -63 -23 -12 -42 -25 -42 -30 0 -5 -13 -11 -29 -15 -16 -3 -35 -13 -42 -21 -6 -8 -18 -14 -26 -14 -7 0 -16 -7 -19 -15 -4 -8 -14 -15 -24 -15 -10 0 -23 -7 -30 -15 -7 -8 -23 -15 -35 -15 -44 0 -49 -19 -42 -182 4 -83 11 -156 16 -162 6 -7 10 -61 11 -121 2 -183 2 -181 -25 -206 -13 -13 -25 -27 -25 -30 0 -3 -34 -42 -75 -85 -41 -43 -75 -82 -75 -86 0 -11 -59 -66 -65 -60 -3 3 -5 -20 -5 -51 0 -32 5 -57 10 -57 6 0 10 -8 11 -17 0 -10 9 -31 20 -48 10 -16 23 -40 28 -52 5 -11 15 -24 20 -28 6 -3 11 -12 11 -19 0 -7 20 -44 45 -82 25 -38 55 -87 66 -109 11 -22 29 -53 40 -70 10 -16 23 -39 29 -50 6 -11 19 -33 30 -50 37 -58 49 -86 56 -133 5 -26 7 -51 6 -56 -2 -4 2 -13 7 -20 5 -6 12 -29 16 -51 4 -22 11 -44 15 -50 5 -5 11 -28 16 -49 4 -22 13 -51 20 -65 8 -14 14 -38 14 -53 0 -15 4 -29 9 -32 5 -3 12 -26 15 -51 4 -25 14 -57 22 -73 7 -15 14 -41 14 -59 0 -17 5 -35 10 -38 13 -8 13 -228 1 -240 -5 -6 -11 -87 -13 -181 -2 -106 -7 -176 -14 -185 -7 -9 -14 -110 -18 -284 -4 -157 -12 -275 -18 -282 -5 -7 -12 -106 -15 -230 -3 -120 -9 -222 -13 -228 -4 -5 -11 -75 -14 -155 -4 -80 -12 -149 -17 -155 -13 -14 -11 -49 6 -81 8 -16 15 -46 15 -66 0 -20 4 -39 9 -42 4 -3 11 -29 15 -58 4 -29 11 -57 16 -63 5 -6 12 -48 16 -94 3 -45 12 -94 20 -109 8 -15 14 -39 14 -53 0 -29 18 -46 70 -70 19 -9 73 -34 120 -56 124 -59 136 -63 188 -63 47 0 47 0 195 142 81 79 168 161 194 183 26 22 122 114 215 205 93 91 175 167 182 170 8 3 62 53 122 112 60 58 186 178 279 265 l170 159 490 -1 489 -2 57 -60 c31 -33 61 -62 67 -64 6 -2 58 -50 116 -106 58 -57 110 -103 116 -103 7 0 57 -45 112 -100 55 -55 103 -100 107 -100 10 0 72 -57 213 -192 61 -60 113 -108 116 -108 12 0 300 -257 382 -341 67 -68 130 -76 223 -29 32 16 74 32 92 36 19 3 39 12 46 20 6 8 19 14 28 14 9 0 22 5 28 11 6 6 26 14 45 18 30 6 33 10 40 55 4 27 12 54 17 59 6 6 11 29 11 52 0 22 6 52 14 66 7 14 16 54 20 90 4 35 11 68 16 74 5 6 11 35 15 65 3 30 10 59 16 65 12 13 12 228 -1 241 -6 6 -13 83 -16 175 -3 90 -10 169 -15 175 -5 6 -12 121 -16 255 -3 138 -10 250 -16 257 -5 7 -12 88 -15 180 -2 92 -8 172 -12 177 -5 6 -11 88 -15 183 -4 95 -11 175 -16 178 -12 7 -11 181 1 189 6 3 10 21 10 39 0 18 7 41 15 52 8 10 15 30 15 44 0 14 6 34 14 45 7 11 16 42 20 69 3 27 10 54 15 60 5 6 12 29 15 51 4 22 11 44 16 49 6 6 10 21 10 36 0 14 7 38 15 54 8 15 15 38 15 50 0 11 7 34 15 50 8 15 15 37 15 48 0 21 29 85 60 133 11 17 24 39 30 50 6 11 19 34 30 50 11 17 24 39 30 50 6 11 19 34 30 50 11 17 24 39 30 50 6 11 19 34 30 50 11 17 23 37 26 45 4 8 13 22 20 30 7 8 28 45 48 83 47 89 47 124 0 174 -20 21 -64 70 -97 108 -34 39 -81 90 -105 114 l-45 43 7 192 c4 105 12 195 17 201 13 13 11 49 -3 63 -9 9 -9 17 1 35 7 13 11 49 9 87 -3 62 -4 65 -30 68 -14 2 -32 10 -38 18 -7 8 -19 14 -26 14 -16 0 -57 21 -121 63 -24 15 -47 27 -52 27 -5 0 -14 6 -20 14 -7 8 -26 18 -42 21 -16 4 -29 13 -29 20 0 7 -6 26 -14 42 -8 15 -22 46 -32 68 -9 22 -21 47 -25 55 -24 43 -49 101 -49 113 0 8 -7 20 -15 27 -8 7 -15 19 -15 28 0 9 -10 36 -21 60 l-22 44 -111 -7 c-61 -4 -115 -11 -121 -15 -5 -4 -69 -10 -140 -14 l-130 -6 -35 33 c-29 27 -123 96 -208 152 -8 6 -23 17 -32 25 -8 9 -48 42 -88 73 l-72 58 -1 72 c-1 106 -7 120 -54 130 -22 5 -48 13 -58 18 -10 6 -69 12 -130 15 -62 3 -116 9 -121 15 -6 5 -33 9 -61 9 -30 0 -59 6 -71 15 -10 8 -25 15 -32 15 -8 0 -30 7 -50 16 -21 8 -50 21 -67 28 -16 7 -51 23 -76 35 -25 11 -50 21 -56 21 -15 0 -63 25 -63 33 0 4 -10 12 -22 18 -34 15 -57 30 -127 82 -56 42 -69 47 -115 47 -41 0 -63 -7 -102 -31z m-143 -251 c19 -6 50 -21 69 -33 19 -12 67 -33 106 -47 l70 -26 52 18 c28 10 66 26 83 34 18 9 36 16 42 16 9 0 67 24 100 41 19 10 82 -4 101 -22 6 -5 16 -9 24 -9 14 0 87 -30 142 -60 31 -16 132 -36 229 -45 18 -2 35 -6 38 -9 3 -3 14 -1 24 4 12 7 20 7 24 0 3 -5 27 -10 53 -10 85 0 88 -3 95 -78 4 -37 8 -75 10 -84 4 -21 43 -64 73 -81 19 -10 95 -69 144 -110 41 -34 111 -88 160 -122 30 -21 59 -44 63 -52 4 -7 14 -13 21 -13 8 0 19 -7 27 -16 10 -12 29 -15 98 -11 141 6 263 17 306 27 58 14 75 12 82 -7 3 -10 19 -46 34 -81 16 -35 29 -68 29 -73 0 -5 11 -27 25 -49 14 -22 25 -42 25 -44 0 -3 5 -17 12 -33 6 -15 12 -30 13 -33 17 -58 37 -79 136 -137 57 -34 120 -70 139 -82 19 -11 50 -27 68 -35 36 -17 36 -14 22 -141 -6 -49 -13 -153 -16 -230 -3 -77 -8 -144 -12 -149 -3 -6 -5 -27 -5 -48 0 -33 10 -47 92 -130 50 -51 98 -104 107 -118 9 -14 37 -46 62 -72 l45 -46 -24 -33 c-26 -36 -44 -65 -56 -89 -4 -8 -35 -58 -69 -110 -107 -165 -234 -379 -234 -393 0 -12 -21 -85 -37 -127 -3 -8 -7 -20 -8 -26 -2 -7 -12 -43 -24 -80 -53 -177 -63 -211 -67 -231 -2 -12 -9 -35 -16 -50 -6 -16 -10 -35 -9 -45 1 -9 -3 -19 -9 -23 -5 -3 -10 -19 -10 -35 0 -16 -5 -32 -10 -35 -6 -4 -8 -10 -5 -15 3 -5 1 -19 -4 -32 -5 -12 -5 -57 -1 -98 5 -41 11 -140 14 -220 4 -79 11 -164 17 -189 6 -26 9 -73 8 -106 -1 -33 1 -67 4 -75 4 -13 12 -121 22 -311 1 -20 5 -40 8 -45 3 -5 8 -88 11 -184 4 -96 10 -188 15 -205 5 -16 12 -128 15 -248 4 -119 11 -229 17 -243 7 -19 5 -43 -6 -86 -8 -33 -15 -72 -15 -87 0 -15 -3 -31 -7 -35 -7 -7 -10 -19 -19 -76 -4 -19 -10 -40 -15 -46 -5 -6 -6 -13 -3 -16 5 -5 -9 -66 -24 -108 -3 -8 -7 -28 -9 -45 -3 -16 -8 -33 -11 -37 -4 -3 -47 -23 -97 -43 -49 -20 -109 -47 -132 -61 -23 -13 -50 -24 -61 -24 -10 0 -97 72 -198 164 -98 90 -201 183 -227 207 -27 24 -79 72 -116 106 -37 35 -71 63 -75 63 -5 0 -29 20 -54 45 -26 24 -102 97 -170 162 -68 65 -129 120 -136 123 -8 3 -102 86 -211 185 -108 99 -204 184 -214 190 -10 8 -48 9 -111 4 -52 -4 -148 -8 -212 -8 -66 -1 -120 -5 -123 -11 -8 -13 -128 -13 -141 -1 -5 6 -90 13 -189 16 -99 3 -190 8 -203 11 -18 4 -50 -22 -166 -137 -80 -78 -155 -148 -168 -157 -13 -9 -111 -100 -218 -202 -107 -103 -267 -253 -355 -335 -88 -82 -191 -180 -228 -217 -37 -37 -71 -68 -75 -68 -4 0 -39 -31 -77 -70 -38 -38 -77 -70 -87 -70 -15 0 -51 17 -123 57 -11 7 -51 26 -88 43 -48 21 -70 38 -77 56 -6 14 -8 30 -5 34 3 5 1 17 -4 27 -9 17 -28 116 -38 198 -3 22 -9 44 -14 50 -5 5 -9 18 -9 30 0 11 -6 46 -14 76 -11 43 -13 78 -6 159 5 58 13 164 19 235 6 72 16 211 22 310 11 193 16 267 18 275 0 3 4 79 7 170 3 90 10 173 15 183 6 10 10 43 9 75 0 31 4 111 10 177 6 66 12 154 14 195 10 252 10 251 -18 345 -15 50 -36 122 -47 160 -12 39 -25 81 -29 95 -9 28 -23 80 -25 95 -1 6 -7 23 -14 39 -6 16 -13 43 -15 60 -4 43 -15 85 -32 123 -8 17 -14 38 -14 46 0 7 -14 33 -30 55 -17 23 -30 45 -30 48 0 3 -10 20 -22 37 -13 18 -31 47 -41 66 -10 19 -30 52 -45 75 -14 23 -44 75 -66 116 -21 41 -57 104 -78 139 -35 56 -37 65 -25 80 8 9 16 21 18 28 2 6 53 63 113 127 59 63 115 124 123 136 13 18 14 46 8 168 -12 259 -22 410 -29 420 -8 13 27 41 84 68 8 4 57 34 108 66 51 32 106 65 121 73 20 10 30 24 34 50 3 19 15 48 26 64 11 15 18 31 14 34 -3 4 -1 12 4 19 6 7 30 62 54 122 24 59 50 111 57 114 8 3 87 -2 176 -12 253 -26 247 -27 338 44 42 33 81 60 86 60 4 0 21 14 38 31 16 17 72 65 124 107 168 134 160 124 160 213 0 47 4 81 11 85 11 6 74 16 194 29 163 17 221 28 244 44 14 10 37 22 51 26 14 4 52 20 85 35 99 45 98 45 146 28z"/>
 <path d="M2481 5975 c-24 -26 -126 -178 -156 -233 -5 -10 -27 -41 -48 -70 -21 -29 -41 -67 -44 -85 -3 -17 -10 -41 -16 -52 -5 -11 -14 -35 -19 -55 -5 -19 -10 -42 -12 -50 -3 -8 -14 -60 -26 -115 -12 -55 -25 -109 -29 -120 -26 -69 -38 -116 -31 -120 4 -3 37 -46 71 -96 63 -90 193 -270 230 -319 54 -72 139 -191 139 -197 0 -3 25 -39 55 -79 30 -40 55 -77 55 -82 0 -5 7 -15 15 -22 23 -19 18 -39 -12 -45 -16 -4 -36 -10 -45 -16 -10 -5 -31 -9 -48 -9 -16 0 -71 -11 -122 -25 -51 -14 -113 -30 -138 -36 -25 -7 -54 -15 -65 -20 -11 -4 -33 -10 -49 -14 -18 -4 -70 -45 -133 -104 -114 -107 -121 -111 -240 -111 -34 0 -65 -4 -68 -10 -3 -5 -32 -10 -63 -10 -31 0 -88 -3 -125 -7 -58 -5 -73 -11 -98 -35 -16 -16 -29 -37 -29 -46 0 -9 -6 -29 -14 -44 -8 -15 -17 -40 -21 -56 -5 -26 -11 -30 -39 -30 -19 0 -43 -5 -54 -11 -11 -6 -37 -11 -57 -11 -62 0 -90 -22 -109 -87 -10 -32 -21 -69 -26 -83 -5 -14 -12 -41 -15 -60 -10 -51 -46 -163 -56 -174 -5 -6 -9 -22 -9 -37 0 -15 -4 -30 -9 -33 -5 -3 -12 -26 -15 -51 -4 -24 -11 -47 -17 -50 -5 -4 -9 -16 -9 -29 0 -23 -25 -109 -40 -137 -6 -12 -2 -23 13 -37 21 -20 25 -20 62 -7 22 8 52 14 67 15 15 0 29 4 32 9 4 5 25 12 49 16 23 4 47 11 52 15 6 4 30 11 55 15 25 4 50 11 55 15 6 4 37 10 69 14 33 4 64 10 70 15 6 5 31 12 56 16 25 4 50 11 55 16 6 4 26 11 45 14 19 3 39 10 45 16 5 5 18 9 30 9 19 0 149 34 187 48 9 4 32 26 50 49 18 23 78 97 133 165 55 67 114 140 130 161 17 21 44 56 60 77 17 21 71 91 121 157 51 65 110 136 133 158 23 21 41 44 41 50 0 6 12 22 26 36 14 13 42 47 62 74 20 28 48 64 62 81 l26 30 67 -77 c37 -42 67 -80 67 -84 0 -4 25 -34 55 -68 81 -92 240 -280 325 -387 41 -51 98 -119 125 -150 28 -32 79 -95 115 -140 94 -120 112 -135 178 -148 78 -16 144 -33 162 -42 9 -4 36 -11 60 -15 24 -4 51 -11 60 -16 21 -11 94 -29 165 -41 33 -5 67 -13 75 -18 9 -4 36 -11 60 -14 25 -4 54 -11 65 -16 11 -4 38 -13 60 -18 22 -6 76 -19 119 -31 59 -16 82 -18 93 -10 18 15 17 64 -2 79 -8 7 -15 25 -15 41 0 15 -4 30 -9 33 -4 3 -11 25 -15 48 -4 23 -10 47 -15 53 -4 5 -13 36 -20 67 -7 32 -17 60 -22 63 -5 4 -9 19 -9 35 0 16 -4 31 -9 34 -4 3 -11 24 -15 46 -3 23 -10 49 -16 58 -5 9 -14 37 -20 62 -6 25 -15 61 -20 80 -14 55 -60 90 -118 90 -26 0 -52 4 -57 9 -6 6 -30 11 -54 13 l-44 3 -31 87 c-19 52 -40 94 -53 103 -14 10 -61 17 -147 21 -70 4 -129 11 -132 16 -3 4 -49 8 -103 8 -114 0 -109 -3 -241 126 -88 86 -84 84 -220 116 -25 6 -49 14 -55 18 -5 4 -35 10 -65 14 -60 7 -183 34 -215 47 -11 4 -35 11 -52 14 -18 4 -33 8 -33 10 0 10 44 83 64 105 12 14 49 61 81 105 32 44 62 82 66 85 4 3 29 37 55 75 26 39 56 80 67 92 11 12 25 31 31 42 6 11 51 73 101 138 136 179 148 198 136 222 -6 11 -11 33 -11 50 0 16 -4 32 -9 35 -5 3 -12 27 -16 52 -4 26 -10 54 -15 63 -14 28 -41 124 -47 171 -3 25 -9 50 -13 55 -5 6 -11 26 -15 47 -4 20 -18 46 -31 59 -13 12 -24 27 -24 32 0 5 -13 26 -30 47 -16 21 -30 41 -30 45 0 10 -135 187 -162 212 -22 21 -33 22 -241 25 l-218 3 -28 -30z m-165 -585 c4 -8 20 -31 36 -51 15 -20 28 -40 28 -43 0 -4 17 -30 39 -59 21 -29 41 -60 44 -69 4 -12 17 -18 35 -18 15 0 33 -5 38 -10 7 -7 90 -9 229 -8 l218 3 24 45 c13 25 34 54 48 65 14 12 25 24 25 29 0 11 68 125 89 149 15 18 16 17 27 -15 7 -18 13 -48 13 -66 1 -18 5 -40 11 -50 19 -32 34 -77 46 -137 10 -52 9 -62 -6 -85 -9 -14 -23 -35 -31 -46 -8 -12 -120 -163 -250 -335 -129 -173 -240 -322 -245 -331 -8 -15 -20 -2 -74 78 -36 52 -80 119 -97 147 -18 29 -37 53 -43 55 -5 2 -10 8 -10 14 0 10 -54 85 -75 103 -6 6 -20 24 -30 40 -11 17 -38 55 -61 85 -88 117 -153 219 -144 225 6 3 10 23 10 43 0 20 7 50 15 66 8 15 15 37 15 48 0 10 10 57 21 104 23 90 24 90 55 24z m569 -1270 c19 -8 59 -16 195 -41 36 -7 70 -16 75 -20 6 -4 35 -11 64 -15 51 -7 59 -12 175 -119 l122 -112 162 -5 c93 -3 167 -10 175 -16 7 -6 39 -12 72 -14 51 -3 60 -6 63 -23 2 -11 9 -33 17 -50 44 -96 47 -106 35 -120 -7 -8 -15 -14 -18 -13 -13 2 -62 -22 -62 -31 0 -5 -9 -11 -20 -14 -15 -4 -20 -14 -20 -36 0 -17 -5 -40 -12 -50 -15 -25 2 -47 43 -56 16 -4 29 -8 29 -10 0 -2 -27 -49 -61 -105 l-60 -100 -106 0 -106 0 -65 67 -66 68 40 7 c21 4 76 7 120 7 96 1 94 -1 155 121 12 25 29 53 37 63 13 15 13 19 -1 35 -10 10 -17 23 -17 29 0 6 -7 16 -15 23 -8 7 -15 21 -15 31 0 10 -6 22 -12 26 -7 4 -20 22 -30 38 -11 21 -29 34 -60 43 -23 8 -53 18 -65 24 -12 6 -29 8 -37 5 -8 -3 -18 -2 -21 3 -4 6 -17 10 -30 10 -13 0 -26 4 -29 9 -4 5 -25 12 -49 16 -23 4 -46 10 -52 14 -5 4 -19 8 -30 8 -11 1 -33 7 -50 14 -16 7 -34 14 -40 14 -5 1 -18 5 -28 10 -22 9 -65 -9 -74 -31 -6 -15 17 -67 57 -129 11 -16 23 -37 28 -45 10 -20 64 -105 130 -205 l52 -80 -42 46 c-66 71 -178 205 -223 263 -53 70 -142 175 -171 203 -13 12 -24 25 -24 28 0 4 -28 40 -62 80 -138 161 -138 161 -73 135z m-307 -36 c-18 -26 -50 -63 -70 -84 -21 -21 -38 -42 -38 -48 0 -5 -7 -12 -15 -16 -8 -3 -15 -12 -15 -20 0 -7 -7 -16 -15 -20 -8 -3 -15 -12 -15 -21 0 -8 -3 -15 -8 -15 -4 0 -32 -33 -62 -72 -30 -40 -60 -77 -67 -81 -7 -4 -13 -15 -13 -22 0 -8 -4 -15 -8 -15 -4 0 -25 -24 -47 -52 -21 -29 -44 -57 -52 -61 -7 -4 -13 -13 -13 -19 0 -6 -21 -36 -47 -67 -63 -76 -70 -82 -46 -41 34 56 83 149 130 242 25 48 49 90 54 93 5 4 9 19 9 35 0 57 -66 72 -140 33 -14 -7 -33 -13 -42 -13 -9 0 -20 -4 -23 -10 -3 -5 -14 -10 -23 -10 -9 0 -29 -6 -43 -14 -14 -7 -43 -16 -65 -20 -21 -5 -44 -12 -50 -17 -6 -5 -35 -12 -64 -16 -30 -5 -56 -14 -61 -23 -4 -8 -28 -50 -53 -93 -48 -80 -57 -125 -31 -147 8 -7 15 -17 15 -22 0 -5 11 -24 24 -41 14 -18 29 -44 35 -60 l11 -27 102 0 c127 0 144 -8 100 -46 -18 -16 -32 -31 -32 -35 0 -4 -12 -21 -27 -38 -27 -31 -28 -31 -129 -31 -117 0 -112 -3 -164 105 -19 39 -41 78 -48 87 -13 15 -10 17 22 23 46 9 64 30 48 56 -7 10 -12 32 -12 49 0 20 -6 32 -17 36 -10 3 -25 9 -33 14 -8 5 -30 17 -47 26 -38 19 -40 33 -13 93 11 24 20 49 20 55 0 7 6 24 13 39 11 24 17 27 67 27 31 0 61 5 66 10 6 6 66 14 133 17 67 3 124 10 127 15 3 4 24 8 46 8 38 0 47 6 122 83 100 101 131 124 185 133 23 4 44 11 47 15 3 5 17 9 32 9 15 0 56 9 90 20 35 11 81 20 102 20 21 0 42 5 45 10 3 6 13 10 21 10 11 0 6 -13 -18 -46z m-611 -509 l32 -56 -19 -32 c-11 -18 -27 -47 -36 -64 -16 -32 -18 -33 -83 -33 -67 0 -91 10 -91 38 0 8 -11 27 -25 44 -30 35 -31 57 -7 89 10 13 24 36 31 51 14 27 16 28 90 24 l76 -5 32 -56z m1779 0 c19 -32 33 -63 29 -69 -3 -6 -18 -33 -34 -61 l-29 -50 -79 0 -78 0 -32 50 c-18 27 -33 58 -33 68 0 11 14 42 31 70 l31 52 80 -1 80 -1 34 -58z"/>
 <path d="M1817 3554 c-16 -16 -6 -62 19 -85 l26 -24 29 34 c26 31 27 37 15 55 -13 21 -74 34 -89 20z"/>
 <path d="M3590 3541 c-5 -11 -10 -26 -10 -34 0 -21 46 -59 67 -55 24 4 41 71 23 92 -18 23 -67 20 -80 -3z"/>
 <path d="M1103 2007 c-67 -34 -128 -68 -135 -75 -7 -7 -19 -43 -26 -80 -7 -37 -19 -98 -27 -137 -20 -102 -43 -221 -56 -293 -11 -64 -10 -68 27 -214 65 -261 99 -403 118 -488 13 -63 31 -100 49 -100 7 0 101 94 209 209 l197 208 -11 69 c-14 94 -15 97 -20 114 -7 20 -41 192 -53 270 -1 8 -5 22 -8 30 -5 13 -20 99 -22 125 0 6 -3 15 -7 20 -3 6 -9 37 -14 70 -4 33 -9 65 -10 70 0 6 -3 17 -6 25 -8 22 -30 137 -37 190 -5 36 -10 45 -26 47 -11 1 -75 -26 -142 -60z"/>
 <path d="M4252 2058 c-7 -7 -12 -31 -12 -54 0 -24 -4 -45 -9 -48 -5 -3 -12 -35 -16 -71 -3 -36 -10 -67 -15 -70 -5 -3 -11 -39 -15 -80 -4 -42 -11 -77 -15 -80 -5 -3 -11 -33 -15 -67 -4 -35 -11 -67 -15 -73 -4 -5 -11 -39 -15 -75 -4 -36 -11 -69 -15 -75 -4 -5 -11 -39 -15 -75 -4 -36 -11 -69 -15 -75 -4 -5 -11 -37 -15 -70 -4 -33 -11 -68 -17 -78 -7 -15 26 -54 199 -232 114 -118 212 -215 219 -215 17 0 35 25 44 62 5 18 16 60 25 93 9 33 21 85 27 115 6 30 14 60 18 65 4 6 11 30 15 55 4 25 11 50 15 55 4 6 11 34 15 62 4 29 10 55 15 58 4 3 11 29 15 60 3 30 11 57 16 60 12 8 12 128 0 141 -5 5 -14 41 -20 79 -17 114 -36 209 -42 220 -4 6 -10 35 -13 65 -4 30 -11 64 -16 75 -4 11 -11 28 -14 37 -5 17 -20 25 -200 107 -100 46 -98 45 -114 29z"/>
 </g>
<g id="layer6" fill="#cc0000" stroke="none">
 <path d="M3004 6209 c-3 -5 -14 -9 -25 -9 -11 0 -22 -7 -25 -15 -4 -8 -16 -15 -29 -15 -12 0 -28 -7 -35 -15 -7 -8 -25 -15 -40 -15 -15 0 -33 -7 -40 -15 -7 -8 -24 -15 -39 -15 -15 0 -32 -5 -38 -11 -8 -8 -13 -8 -17 0 -4 6 -20 11 -35 11 -16 0 -34 7 -41 15 -7 8 -25 15 -39 15 -17 0 -39 12 -59 31 -30 30 -37 32 -104 31 -54 0 -75 -4 -84 -16 -6 -9 -18 -16 -26 -16 -9 0 -21 -6 -27 -14 -6 -7 -33 -19 -59 -26 -26 -7 -55 -20 -65 -28 -9 -8 -20 -12 -24 -9 -3 4 -11 2 -18 -3 -7 -5 -57 -11 -112 -13 -59 -2 -107 -8 -115 -15 -8 -6 -42 -13 -76 -16 -33 -2 -65 -7 -70 -10 -5 -3 -12 -41 -14 -84 -5 -71 -9 -81 -38 -110 -17 -18 -35 -32 -38 -32 -4 0 -20 -16 -35 -35 -16 -20 -34 -34 -42 -33 -7 2 -40 -25 -73 -59 -34 -34 -74 -70 -89 -79 -15 -10 -58 -40 -94 -67 -63 -47 -69 -49 -143 -54 -44 -2 -82 0 -89 6 -7 5 -73 12 -148 15 l-135 6 -22 -30 c-12 -16 -22 -38 -22 -48 0 -11 -7 -25 -15 -32 -8 -7 -15 -25 -15 -40 0 -15 -7 -33 -15 -40 -8 -7 -15 -20 -15 -30 0 -21 -29 -82 -44 -92 -6 -4 -11 -15 -12 -25 -1 -10 -2 -27 -3 -39 0 -12 -13 -27 -28 -35 -16 -7 -39 -21 -52 -31 -13 -10 -31 -18 -41 -18 -9 0 -25 -9 -35 -20 -9 -10 -49 -38 -89 -61 -39 -23 -79 -49 -88 -57 -20 -17 -24 -67 -7 -78 8 -5 10 -35 5 -100 -4 -58 -3 -95 4 -99 5 -3 7 -25 4 -49 -5 -32 -2 -50 11 -70 14 -20 15 -30 6 -39 -15 -15 -14 -110 1 -125 9 -9 8 -16 -5 -30 -9 -10 -17 -24 -17 -31 0 -6 -53 -64 -117 -129 -65 -64 -117 -121 -115 -126 2 -5 -7 -19 -18 -32 l-22 -22 21 -12 c12 -6 20 -17 19 -23 -2 -7 11 -31 27 -52 33 -43 59 -92 60 -113 0 -7 5 -16 11 -20 5 -4 18 -23 27 -43 9 -20 23 -42 32 -49 8 -7 15 -21 15 -31 0 -11 9 -28 20 -39 12 -12 18 -25 15 -30 -3 -5 4 -15 15 -23 12 -8 29 -30 38 -48 10 -19 30 -53 46 -76 18 -27 26 -48 21 -62 -4 -12 0 -23 9 -28 9 -5 17 -28 20 -53 3 -25 12 -65 21 -90 8 -24 13 -51 10 -59 -3 -7 1 -21 9 -30 9 -9 18 -36 21 -60 3 -25 10 -50 15 -57 6 -6 12 -26 15 -44 2 -17 8 -37 13 -43 6 -7 11 -25 13 -42 2 -16 7 -35 12 -42 4 -6 12 -39 18 -73 5 -34 15 -70 22 -81 9 -15 9 -23 0 -39 -9 -13 -15 -94 -18 -251 -4 -127 -11 -243 -17 -257 -5 -15 -12 -128 -15 -252 -3 -135 -10 -230 -16 -238 -6 -7 -10 -34 -10 -60 1 -26 -4 -53 -9 -59 -6 -7 -7 -21 -3 -30 10 -24 6 -185 -5 -198 -5 -6 -10 -90 -12 -187 -3 -124 -8 -180 -17 -191 -8 -10 -12 -38 -10 -76 1 -34 -1 -64 -4 -68 -11 -11 -8 -48 5 -61 7 -7 8 -12 4 -12 -5 0 -3 -7 4 -15 7 -8 13 -35 14 -59 1 -25 8 -52 15 -60 7 -9 11 -27 9 -41 -3 -14 -1 -28 4 -31 5 -3 6 -14 3 -23 -3 -10 1 -24 10 -31 10 -8 15 -30 15 -64 0 -53 22 -139 41 -162 6 -8 22 -14 34 -14 13 0 25 -5 27 -11 2 -7 17 -13 32 -15 16 -2 36 -10 45 -18 10 -9 22 -16 28 -16 6 0 13 -7 17 -15 3 -8 12 -12 20 -9 8 3 23 -4 33 -15 9 -12 25 -21 34 -21 10 0 53 35 97 78 169 162 243 232 250 232 4 0 68 59 142 130 74 71 137 130 139 130 5 0 144 135 392 379 120 118 226 219 236 224 10 5 37 27 59 49 l42 40 133 -1 c84 -1 138 -6 147 -14 19 -15 520 -13 536 3 14 14 162 13 186 -2 12 -7 62 -52 113 -100 51 -48 97 -88 102 -88 6 0 39 -29 75 -65 36 -35 70 -65 76 -65 5 0 82 -67 170 -149 87 -83 178 -167 202 -188 24 -21 74 -67 110 -103 37 -36 69 -65 72 -65 4 0 21 -17 39 -38 18 -20 44 -40 57 -43 12 -3 60 -46 105 -95 45 -49 86 -89 91 -89 5 0 34 -27 65 -60 30 -33 61 -60 68 -60 6 0 20 -9 30 -20 25 -28 49 -25 88 10 19 16 44 30 55 30 11 0 25 7 32 15 7 8 23 15 35 15 12 0 28 6 34 14 7 8 25 18 41 21 42 9 59 35 66 101 3 32 11 70 18 84 6 14 13 45 15 70 1 25 9 52 17 61 8 9 11 18 8 22 -4 3 -3 14 1 24 4 10 7 28 6 40 -1 13 4 32 12 44 12 16 14 47 10 152 -3 73 -9 137 -13 142 -10 12 -16 183 -6 192 10 11 7 81 -5 88 -6 4 -8 14 -4 22 3 9 -2 27 -11 41 -15 22 -16 45 -10 178 5 104 4 154 -3 159 -7 4 -9 22 -5 44 4 23 2 41 -5 45 -6 4 -8 20 -4 36 3 16 2 37 -2 47 -8 18 -12 102 -14 268 -1 58 -6 100 -16 118 -11 21 -16 81 -20 230 -4 111 -11 212 -17 223 -8 16 -6 28 7 47 9 15 14 31 11 36 -4 5 -2 12 4 16 5 3 7 17 4 31 -4 15 -1 31 8 42 8 9 15 32 16 50 2 19 9 47 17 62 8 16 15 42 15 58 0 15 5 33 12 40 6 6 13 28 15 49 2 21 11 45 19 54 7 8 14 29 14 45 0 17 5 35 11 41 5 5 12 32 15 58 2 27 10 55 16 62 6 8 13 31 15 51 2 20 8 39 14 40 5 2 18 23 29 47 11 23 26 45 35 48 8 4 12 13 9 21 -3 9 3 19 16 26 12 6 19 14 16 17 -3 4 -1 12 4 18 6 7 22 34 36 61 14 26 39 65 55 85 16 20 29 41 29 47 0 5 6 15 13 21 8 6 29 41 48 77 18 37 46 79 61 94 l27 27 -50 49 c-27 26 -52 57 -55 69 -3 11 -48 61 -101 110 l-95 90 1 65 c1 36 1 127 0 203 -1 110 2 142 14 155 19 22 34 187 17 197 -6 4 -21 8 -33 9 -12 2 -42 16 -67 32 -75 48 -84 53 -102 60 -9 3 -19 12 -22 20 -3 8 -14 14 -24 14 -11 0 -25 7 -32 15 -7 8 -20 15 -29 15 -26 1 -51 25 -51 51 0 13 -9 38 -20 54 -11 17 -17 38 -14 47 3 11 -3 21 -16 28 -13 7 -19 17 -16 26 3 8 -1 17 -9 20 -8 4 -15 11 -15 18 -1 6 -9 29 -20 51 -11 22 -19 46 -20 53 0 7 -7 23 -15 36 -9 13 -14 30 -13 37 4 18 -39 24 -59 8 -10 -9 -53 -14 -121 -16 -58 -2 -111 -8 -118 -14 -18 -14 -182 -7 -188 9 -3 6 -14 12 -25 12 -11 0 -30 14 -43 30 -12 17 -27 30 -34 30 -6 0 -22 11 -35 25 -13 13 -29 25 -36 25 -7 0 -17 8 -22 18 -5 10 -22 24 -38 32 -37 19 -113 79 -136 108 -10 12 -25 22 -33 22 -7 0 -28 13 -46 28 -29 27 -32 35 -37 110 -4 45 -11 86 -18 93 -6 6 -40 13 -75 16 -34 2 -68 9 -75 15 -9 7 -17 7 -28 -2 -12 -10 -18 -10 -30 0 -8 6 -49 14 -92 17 -43 2 -82 8 -87 13 -5 5 -14 6 -21 4 -7 -3 -16 -1 -19 5 -4 6 -13 8 -21 5 -7 -3 -18 4 -25 16 -7 13 -17 19 -26 16 -9 -3 -35 3 -59 14 -24 11 -48 20 -53 20 -5 0 -15 7 -22 15 -7 8 -16 12 -21 9 -5 -3 -23 1 -39 10 -17 8 -32 10 -36 5z m-452 -215 c4 -3 93 -5 199 -4 l193 1 43 -48 c23 -26 43 -52 43 -56 0 -5 14 -22 30 -39 17 -16 28 -34 25 -38 -3 -5 4 -14 15 -20 12 -7 19 -18 16 -25 -3 -8 3 -20 14 -28 10 -7 39 -40 63 -73 33 -45 43 -68 41 -89 -2 -16 1 -34 6 -40 5 -6 11 -28 14 -50 7 -64 18 -98 38 -124 12 -15 15 -28 9 -34 -6 -6 -2 -23 11 -45 11 -19 17 -44 15 -54 -3 -10 -1 -21 4 -24 5 -3 9 -18 9 -33 0 -15 4 -31 9 -36 4 -6 11 -22 15 -37 5 -22 1 -31 -19 -44 -14 -9 -23 -20 -20 -24 3 -4 -2 -13 -10 -20 -8 -7 -15 -18 -15 -24 0 -7 -18 -30 -40 -51 -22 -21 -40 -44 -40 -50 0 -6 -20 -32 -45 -59 -25 -27 -45 -55 -45 -61 0 -15 -124 -181 -161 -216 -16 -15 -29 -32 -29 -38 0 -10 -51 -79 -173 -237 -21 -27 -15 -44 13 -44 11 0 36 -9 56 -21 20 -11 46 -19 58 -18 11 1 32 -3 46 -8 14 -6 31 -8 38 -6 7 3 19 0 27 -7 8 -7 24 -10 35 -7 18 5 71 -9 98 -26 6 -5 17 -5 22 -2 6 4 30 -2 53 -13 24 -11 54 -18 68 -15 20 4 36 -6 81 -51 31 -31 60 -56 65 -56 5 0 31 -22 58 -50 49 -49 50 -50 112 -50 34 0 65 -4 68 -10 3 -5 24 -10 45 -10 21 0 42 -5 45 -11 4 -6 41 -10 88 -10 45 1 109 -3 141 -7 55 -7 59 -9 62 -36 2 -15 10 -36 19 -46 10 -11 14 -23 11 -29 -9 -14 43 -87 59 -83 7 1 16 -2 20 -8 3 -5 28 -10 55 -10 27 0 51 -4 54 -9 3 -5 26 -12 51 -15 28 -5 45 -12 45 -21 0 -8 5 -26 12 -42 6 -15 12 -35 13 -45 1 -9 6 -25 10 -35 4 -10 7 -25 6 -34 -1 -9 7 -33 19 -54 11 -20 18 -40 15 -45 -3 -5 -1 -17 5 -27 11 -20 33 -73 36 -88 1 -5 3 -13 4 -17 1 -5 3 -11 4 -15 1 -5 5 -14 9 -21 5 -7 13 -41 17 -75 5 -34 18 -80 28 -102 21 -45 42 -105 42 -123 0 -10 -68 -11 -90 -2 -3 1 -9 3 -15 4 -50 11 -76 20 -80 26 -3 5 -14 6 -25 3 -11 -3 -32 4 -50 17 -20 14 -40 20 -56 17 -13 -2 -27 0 -30 4 -3 5 -20 9 -39 9 -19 0 -37 5 -41 11 -3 6 -17 9 -31 6 -13 -2 -42 4 -63 14 -21 10 -46 16 -54 13 -9 -3 -32 4 -52 15 -20 12 -44 19 -54 16 -10 -3 -35 4 -55 15 -21 12 -47 20 -59 19 -11 -2 -31 3 -44 9 -12 7 -27 10 -33 7 -5 -4 -16 -2 -23 4 -8 7 -28 13 -46 16 -38 5 -79 30 -87 53 -3 9 -24 36 -47 59 -49 50 -76 81 -76 88 0 2 -23 28 -51 57 -28 29 -57 68 -65 85 -8 18 -23 39 -34 45 -11 7 -20 18 -20 23 0 6 -22 33 -50 60 -27 27 -50 54 -50 60 0 14 -110 139 -125 143 -15 4 -76 87 -70 94 3 3 -18 28 -47 55 -29 28 -71 74 -93 103 -22 30 -53 67 -70 83 l-29 29 -53 -59 c-29 -32 -52 -62 -53 -68 0 -5 -23 -32 -51 -59 -29 -28 -58 -65 -65 -82 -8 -18 -34 -50 -59 -71 -25 -20 -45 -43 -45 -49 0 -7 -7 -14 -15 -18 -8 -3 -15 -10 -15 -17 0 -14 -57 -88 -87 -112 -13 -10 -23 -25 -23 -32 0 -8 -27 -46 -60 -84 -33 -39 -60 -74 -60 -79 0 -5 -16 -22 -35 -36 -19 -15 -35 -33 -35 -40 0 -8 -7 -16 -15 -20 -8 -3 -15 -10 -15 -17 0 -6 -27 -38 -60 -72 -33 -34 -66 -74 -72 -89 -12 -26 -39 -38 -100 -43 -14 -1 -41 -10 -58 -19 -18 -8 -36 -13 -41 -11 -4 3 -16 2 -26 -3 -51 -26 -72 -34 -81 -28 -5 3 -28 -3 -50 -14 -22 -11 -48 -17 -56 -14 -9 4 -22 2 -29 -4 -7 -6 -36 -14 -65 -18 -29 -4 -55 -11 -58 -15 -3 -5 -16 -9 -29 -9 -13 0 -27 -5 -30 -11 -4 -6 -13 -8 -21 -5 -8 3 -22 2 -32 -3 -53 -27 -72 -33 -86 -28 -8 3 -33 -3 -56 -14 -22 -11 -45 -17 -50 -14 -5 3 -11 1 -15 -5 -6 -10 -61 -7 -72 3 -3 4 -2 14 2 24 5 10 9 20 9 23 1 3 5 11 9 18 5 7 10 29 12 50 7 57 10 69 23 85 7 8 9 22 6 31 -4 11 2 29 15 47 12 16 21 37 19 47 -1 9 5 32 15 51 9 18 14 37 12 42 -3 4 -1 10 5 14 6 4 8 10 5 15 -3 5 0 21 7 37 6 15 10 33 9 40 -1 6 3 14 8 18 6 3 8 12 4 21 -3 8 2 23 12 34 10 11 15 26 11 36 -3 9 -1 23 5 30 6 8 8 14 4 14 -4 0 0 11 9 25 9 14 13 25 9 25 -4 0 2 6 13 14 11 8 30 12 45 9 15 -3 30 0 33 6 4 6 26 11 50 11 23 0 46 3 50 7 4 4 15 8 24 8 9 0 23 14 31 30 8 17 18 38 23 48 5 10 6 22 4 26 -3 5 3 27 14 50 20 40 22 41 69 41 26 0 51 3 55 7 4 4 42 6 85 4 49 -2 81 1 85 8 4 6 25 11 46 11 21 0 42 5 46 11 4 7 26 10 59 6 l52 -5 112 110 c97 95 115 109 136 104 16 -4 34 0 49 9 13 9 35 18 48 19 12 2 30 6 38 10 8 3 24 7 35 9 11 2 32 9 47 15 14 6 35 11 45 11 37 -1 124 14 129 22 3 5 16 9 29 9 13 0 27 5 30 10 3 6 15 10 25 10 31 0 33 19 6 55 -14 18 -26 37 -26 42 0 4 -12 19 -25 32 -14 13 -25 29 -25 37 0 7 -6 17 -12 21 -16 10 -35 39 -49 76 -6 15 -20 32 -31 38 -11 6 -27 27 -35 47 -8 20 -32 54 -53 74 -21 21 -45 53 -53 71 -9 18 -27 43 -41 56 -14 14 -26 30 -26 37 0 7 -8 18 -17 23 -10 6 -14 11 -9 11 6 0 0 9 -12 20 -12 12 -22 26 -22 33 0 7 -14 25 -30 41 -17 16 -30 35 -30 41 0 7 -9 20 -20 30 -11 10 -20 24 -20 30 0 7 -7 18 -15 25 -19 16 -12 56 17 109 13 22 18 45 14 62 -3 16 -1 31 4 34 6 3 10 17 10 30 0 13 5 27 11 31 6 3 8 16 5 27 -3 12 0 27 6 34 6 7 8 13 4 13 -4 0 1 14 10 31 8 17 13 41 10 54 -4 15 1 28 14 40 13 12 17 25 14 44 -4 19 0 32 15 45 11 10 18 22 16 26 -3 4 5 18 18 31 12 13 31 41 41 62 11 20 23 37 28 37 5 0 16 15 24 33 22 48 68 117 114 168 15 17 42 24 52 13z m-1293 -3951 c1 -66 8 -112 19 -125 6 -8 13 -41 15 -74 2 -33 9 -69 15 -81 6 -11 13 -48 15 -82 3 -33 9 -67 15 -74 6 -7 13 -41 15 -75 3 -34 9 -68 15 -75 6 -7 13 -43 16 -80 2 -38 10 -75 16 -83 7 -7 10 -28 8 -44 -3 -17 -1 -33 4 -36 5 -3 6 -10 3 -15 -3 -5 1 -23 9 -41 28 -65 27 -103 -4 -147 -16 -22 -39 -45 -50 -51 -11 -6 -20 -16 -20 -24 0 -7 -40 -50 -90 -95 -49 -45 -90 -87 -90 -93 0 -13 -105 -118 -118 -118 -14 0 -32 48 -32 86 0 19 -7 45 -15 58 -8 12 -17 40 -18 62 -2 21 -9 53 -16 69 -7 17 -14 46 -15 65 -1 19 -6 44 -13 55 -6 11 -11 37 -11 57 0 20 -7 47 -16 60 -9 12 -16 42 -16 67 0 27 -6 51 -17 63 -21 23 -22 183 -2 219 7 13 14 48 16 78 1 29 8 63 16 75 8 11 14 45 15 74 0 30 7 64 15 75 8 12 14 44 15 70 0 55 22 87 58 87 13 0 26 4 29 10 8 14 146 80 155 75 4 -3 15 4 25 15 25 27 34 25 34 -7z m3026 7 c3 -5 14 -10 24 -10 21 0 97 -36 106 -50 3 -5 17 -10 30 -10 12 0 25 -7 29 -15 3 -8 11 -12 18 -10 14 5 69 -27 70 -41 0 -5 2 -13 3 -19 9 -31 17 -74 19 -105 1 -19 5 -42 8 -50 17 -42 27 -82 22 -95 -3 -7 4 -41 15 -73 12 -33 19 -67 15 -76 -3 -9 -2 -22 4 -29 20 -25 24 -115 6 -152 -9 -19 -14 -42 -11 -50 4 -8 -1 -31 -11 -52 -9 -21 -17 -52 -18 -68 0 -17 -9 -47 -18 -67 -10 -21 -15 -41 -12 -46 5 -9 -9 -61 -26 -95 -5 -10 -6 -22 -3 -27 3 -4 -4 -30 -15 -56 -12 -26 -18 -54 -16 -61 5 -12 0 -29 -25 -88 -5 -11 -8 -28 -6 -39 1 -10 -5 -22 -13 -27 -12 -8 -44 18 -138 108 -67 65 -122 123 -122 128 0 6 -36 43 -80 84 -76 70 -95 103 -72 125 4 4 8 22 9 39 3 47 14 100 25 114 5 6 6 22 3 36 -4 14 -2 28 4 31 6 4 11 22 11 41 0 19 5 37 11 41 6 3 8 17 5 29 -3 13 -2 27 4 30 5 3 10 19 10 35 0 16 5 32 11 36 7 4 9 21 5 45 -3 21 -2 40 4 44 5 3 10 19 10 35 0 16 5 32 11 36 6 3 9 19 5 35 -3 15 -1 31 4 34 6 3 10 19 10 35 0 16 4 31 10 35 5 3 6 13 3 21 -6 16 11 83 29 117 5 11 9 35 8 55 -1 21 -2 40 -1 45 1 10 19 9 26 -3z"/>
 </g>

</svg>